<svg width="32" height="32" viewBox="0 0 32 32" fill="none" xmlns="http://www.w3.org/2000/svg">
<g clip-path="url(#clip0_61_2)">
<rect width="32" height="32" fill="white"/>
<path fill-rule="evenodd" clip-rule="evenodd" d="M5 9C3.93913 9 2.92172 9.42143 2.17157 10.1716C1.42143 10.9217 1 11.9391 1 13V21C1 22.0609 1.42143 23.0783 2.17157 23.8284C2.92172 24.5786 3.93913 25 5 25H25C26.0609 25 27.0783 24.5786 27.8284 23.8284C28.5786 23.0783 29 22.0609 29 21V20.9507C30.1413 20.7187 31 19.7107 31 18.5V15.5C31 14.2907 30.1413 13.2813 29 13.0507V13C29 11.9391 28.5786 10.9217 27.8284 10.1716C27.0783 9.42143 26.0609 9 25 9H5ZM25 11C25.5304 11 26.0391 11.2107 26.4142 11.5858C26.7893 11.9609 27 12.4696 27 13V21C27 21.5304 26.7893 22.0391 26.4142 22.4142C26.0391 22.7893 25.5304 23 25 23H5C4.46957 23 3.96086 22.7893 3.58579 22.4142C3.21071 22.0391 3 21.5304 3 21V13C3 12.4696 3.21071 11.9609 3.58579 11.5858C3.96086 11.2107 4.46957 11 5 11H25Z" fill="black"/>
<rect x="5" y="13" width="20" height="8" rx="1" fill="black"/>
</g>
<defs>
<clipPath id="clip0_61_2">
<rect width="32" height="32" fill="white"/>
</clipPath>
</defs>
</svg>
