<svg width="32" height="32" viewBox="0 0 32 32" fill="none" xmlns="http://www.w3.org/2000/svg">
<g clip-path="url(#clip0_61_88)">
<rect width="32" height="32" fill="white"/>
<path fill-rule="evenodd" clip-rule="evenodd" d="M13.402 4.5C14.556 2.5 17.442 2.5 18.598 4.5L28.99 22.5C29.2533 22.9561 29.3919 23.4734 29.3919 24C29.3919 24.5266 29.2533 25.0439 28.99 25.5C28.7267 25.956 28.348 26.3347 27.892 26.598C27.4359 26.8614 26.9186 27 26.392 27H5.608C5.08123 27.0003 4.56365 26.862 4.10732 26.5988C3.651 26.3356 3.27201 25.9569 3.00848 25.5008C2.74495 25.0447 2.60616 24.5273 2.60608 24.0005C2.60599 23.4737 2.74461 22.9562 3.008 22.5L13.402 4.5ZM16 8C16.3978 8 16.7794 8.15804 17.0607 8.43934C17.342 8.72064 17.5 9.10218 17.5 9.5V15.5C17.5 15.8978 17.342 16.2794 17.0607 16.5607C16.7794 16.842 16.3978 17 16 17C15.6022 17 15.2206 16.842 14.9393 16.5607C14.658 16.2794 14.5 15.8978 14.5 15.5V9.5C14.5 9.10218 14.658 8.72064 14.9393 8.43934C15.2206 8.15804 15.6022 8 16 8ZM16 24C16.5304 24 17.0391 23.7893 17.4142 23.4142C17.7893 23.0391 18 22.5304 18 22C18 21.4696 17.7893 20.9609 17.4142 20.5858C17.0391 20.2107 16.5304 20 16 20C15.4696 20 14.9609 20.2107 14.5858 20.5858C14.2107 20.9609 14 21.4696 14 22C14 22.5304 14.2107 23.0391 14.5858 23.4142C14.9609 23.7893 15.4696 24 16 24Z" fill="black"/>
</g>
<defs>
<clipPath id="clip0_61_88">
<rect width="32" height="32" fill="white"/>
</clipPath>
</defs>
</svg>
