<svg width="28" height="32" viewBox="0 0 28 32" fill="none" xmlns="http://www.w3.org/2000/svg">
<g clip-path="url(#clip0_61_65)">
<rect width="28" height="32" fill="white"/>
<path fill-rule="evenodd" clip-rule="evenodd" d="M15.828 12.05C16.1092 11.7691 16.4905 11.6113 16.888 11.6113C17.2855 11.6113 17.6667 11.7691 17.948 12.05C18.5981 12.7 19.1138 13.4717 19.4656 14.3211C19.8174 15.1704 19.9985 16.0807 19.9985 17C19.9985 17.9193 19.8174 18.8296 19.4656 19.679C19.1138 20.5283 18.5981 21.3 17.948 21.95L13.948 25.95C12.7215 27.1749 11.0841 27.9012 9.35291 27.9882C7.62168 28.0752 5.91974 27.5168 4.57658 26.4211C3.23342 25.3254 2.34459 23.7702 2.08215 22.0568C1.81972 20.3434 2.20237 18.5935 3.156 17.146C3.37934 16.8237 3.72005 16.6016 4.10512 16.5274C4.49019 16.4532 4.88902 16.5327 5.21616 16.749C5.5433 16.9653 5.77273 17.301 5.85532 17.6844C5.93791 18.0678 5.86708 18.4682 5.658 18.8C5.11256 19.6275 4.89373 20.628 5.04391 21.6076C5.19408 22.5872 5.70258 23.4762 6.47084 24.1022C7.23911 24.7283 8.21244 25.0469 9.2022 24.9962C10.192 24.9455 11.1277 24.5293 11.828 23.828L15.828 19.828C16.5779 19.0779 16.9991 18.0607 16.9991 17C16.9991 15.9394 16.5779 14.9221 15.828 14.172C15.5471 13.8908 15.3893 13.5095 15.3893 13.112C15.3893 12.7145 15.5471 12.3313 15.828 12.05Z" fill="black"/>
<path fill-rule="evenodd" clip-rule="evenodd" d="M12.172 19.95C11.8907 20.2309 11.5095 20.3887 11.112 20.3887C10.7145 20.3887 10.3333 20.2309 10.052 19.95C9.40191 19.3 8.88623 18.5283 8.53441 17.6789C8.18258 16.8296 8.0015 15.9193 8.0015 15C8.0015 14.0807 8.18258 13.1704 8.53441 12.321C8.88623 11.4717 9.40191 10.7 10.052 10.05L14.052 6.04998C15.2785 4.82506 16.9159 4.09879 18.6471 4.01176C20.3783 3.92474 22.0803 4.48315 23.4234 5.57888C24.7666 6.67462 25.6554 8.22974 25.9178 9.94317C26.1803 11.6566 25.7976 13.4065 24.844 14.854C24.6207 15.1763 24.28 15.3984 23.8949 15.4726C23.5098 15.5468 23.111 15.4672 22.7838 15.251C22.4567 15.0347 22.2273 14.6989 22.1447 14.3156C22.0621 13.9322 22.1329 13.5318 22.342 13.2C22.8874 12.3725 23.1063 11.372 22.9561 10.3924C22.8059 9.4128 22.2974 8.52382 21.5292 7.89775C20.7609 7.27168 19.7876 6.95311 18.7978 7.00377C17.808 7.05444 16.8723 7.47073 16.172 8.17198L12.172 12.172C11.4221 12.9221 11.0009 13.9393 11.0009 15C11.0009 16.0606 11.4221 17.0779 12.172 17.828C12.4529 18.1092 12.6107 18.4905 12.6107 18.888C12.6107 19.2855 12.4529 19.6667 12.172 19.948V19.95Z" fill="black"/>
</g>
<defs>
<clipPath id="clip0_61_65">
<rect width="28" height="32" fill="white"/>
</clipPath>
</defs>
</svg>
