<svg width="28" height="32" viewBox="0 0 28 32" fill="none" xmlns="http://www.w3.org/2000/svg">
<g clip-path="url(#clip0_61_68)">
<rect width="28" height="32" fill="white"/>
<line x1="3.12132" y1="5" x2="24" y2="25.8787" stroke="black" stroke-width="3" stroke-linecap="round"/>
<path d="M12.5771 18.5771C12.5986 18.6786 12.6103 18.7825 12.6104 18.8877C12.6104 19.2852 12.4528 19.667 12.1719 19.9482V19.9502C11.8907 20.2309 11.5096 20.3886 11.1123 20.3887C10.7148 20.3887 10.333 20.2311 10.0518 19.9502C9.40168 19.3002 8.886 18.528 8.53418 17.6787C8.18243 16.8295 8.00195 15.9192 8.00195 15C8.00195 14.6867 8.02377 14.3746 8.06543 14.0654L12.5771 18.5771ZM18.6475 4.01172C20.3786 3.92479 22.0808 4.48344 23.4238 5.5791C24.7668 6.67482 25.6556 8.23007 25.918 9.94336C26.1803 11.6566 25.7972 13.4061 24.8438 14.8535C24.6204 15.1759 24.2796 15.3984 23.8945 15.4727C23.5096 15.5467 23.1112 15.4671 22.7842 15.251C22.457 15.0347 22.2271 14.6988 22.1445 14.3154C22.062 13.9322 22.1329 13.5319 22.3418 13.2002C22.8872 12.3728 23.1062 11.3721 22.9561 10.3926C22.8059 9.41296 22.2976 8.52353 21.5293 7.89746C20.7611 7.27144 19.7876 6.95326 18.7979 7.00391C17.8081 7.05457 16.8722 7.47063 16.1719 8.17188L13.4141 10.9287L11.293 8.80762L14.0518 6.0498C15.2783 4.82489 16.9162 4.09875 18.6475 4.01172Z" fill="black"/>
<path d="M4.10492 16.5273C4.49 16.4531 4.88911 16.5328 5.21625 16.749C5.54335 16.9653 5.77234 17.3012 5.85492 17.6846C5.93748 18.0679 5.86672 18.468 5.65766 18.7998C5.11224 19.6272 4.89422 20.6278 5.04438 21.6074C5.19455 22.587 5.70287 23.4765 6.47113 24.1025C7.23935 24.7284 8.21296 25.0468 9.20258 24.9961C10.1921 24.9453 11.1274 24.5291 11.8276 23.8281L14.8276 20.8271L16.9487 22.9482L13.9477 25.9502C12.7212 27.1749 11.0841 27.9012 9.35297 27.9883C7.62174 28.0753 5.91976 27.5166 4.5766 26.4209C3.23349 25.3252 2.34489 23.77 2.08246 22.0566C1.8201 20.3434 2.20232 18.5939 3.1557 17.1465C3.37901 16.8242 3.71992 16.6016 4.10492 16.5273ZM16.8881 11.6113C17.2855 11.6114 17.6665 11.7691 17.9477 12.0498C18.5978 12.6998 19.1134 13.472 19.4653 14.3213C19.8171 15.1706 19.9985 16.0807 19.9985 17C19.9985 17.1648 19.9896 17.3292 19.978 17.4932L15.4028 12.918C15.4453 12.5916 15.5928 12.2849 15.8276 12.0498C16.1088 11.7689 16.4906 11.6113 16.8881 11.6113Z" fill="black"/>
</g>
<defs>
<clipPath id="clip0_61_68">
<rect width="28" height="32" fill="white"/>
</clipPath>
</defs>
</svg>
