<svg width="32" height="32" viewBox="0 0 32 32" fill="none" xmlns="http://www.w3.org/2000/svg">
<g clip-path="url(#clip0_61_45)">
<rect width="32" height="32" fill="white"/>
<path fill-rule="evenodd" clip-rule="evenodd" d="M1.828 10.8573C9.63867 3.04797 22.3027 3.04797 30.112 10.8573C30.2049 10.9502 30.2786 11.0604 30.3289 11.1818C30.3792 11.3032 30.4051 11.4333 30.4051 11.5646C30.4051 11.696 30.3792 11.8261 30.3289 11.9475C30.2786 12.0688 30.2049 12.1791 30.112 12.272L29.4053 12.9786C29.2178 13.1659 28.9637 13.2711 28.6987 13.2711C28.4337 13.2711 28.1795 13.1659 27.992 12.9786C21.352 6.33997 10.588 6.33997 3.94933 12.9786C3.76183 13.1659 3.50767 13.2711 3.24267 13.2711C2.97767 13.2711 2.7235 13.1659 2.536 12.9786L1.82933 12.272C1.64207 12.0845 1.53688 11.8303 1.53688 11.5653C1.53688 11.3003 1.64207 11.0461 1.82933 10.8586L1.828 10.8573ZM6.07067 15.1C11.5373 9.6333 20.4027 9.6333 25.8707 15.1C25.9636 15.1928 26.0373 15.3031 26.0876 15.4245C26.1379 15.5458 26.1638 15.6759 26.1638 15.8073C26.1638 15.9387 26.1379 16.0688 26.0876 16.1901C26.0373 16.3115 25.9636 16.4218 25.8707 16.5146L25.164 17.2213C25.0711 17.3144 24.9608 17.3883 24.8393 17.4387C24.7178 17.4891 24.5875 17.5151 24.456 17.5151C24.3245 17.5151 24.1942 17.4891 24.0727 17.4387C23.9512 17.3883 23.8409 17.3144 23.748 17.2213C21.6851 15.1585 18.8873 13.9997 15.97 13.9997C13.0527 13.9997 10.2549 15.1585 8.192 17.2213C8.0045 17.4086 7.75033 17.5138 7.48533 17.5138C7.22033 17.5138 6.96617 17.4086 6.77867 17.2213L6.072 16.5146C5.88473 16.3271 5.77955 16.073 5.77955 15.808C5.77955 15.543 5.88473 15.2888 6.072 15.1013L6.07067 15.1ZM10.3427 19.3426C11.0856 18.5996 11.9675 18.0102 12.9382 17.6081C13.9089 17.206 14.9493 16.999 16 16.999C17.0507 16.999 18.0911 17.206 19.0618 17.6081C20.0325 18.0102 20.9144 18.5996 21.6573 19.3426C21.7503 19.4355 21.824 19.5458 21.8743 19.6671C21.9246 19.7885 21.9505 19.9186 21.9505 20.05C21.9505 20.1813 21.9246 20.3114 21.8743 20.4328C21.824 20.5542 21.7503 20.6644 21.6573 20.7573L20.9507 21.464C20.8578 21.5569 20.7475 21.6306 20.6262 21.6809C20.5048 21.7312 20.3747 21.7571 20.2433 21.7571C20.112 21.7571 19.9819 21.7312 19.8605 21.6809C19.7391 21.6306 19.6289 21.5569 19.536 21.464C19.0717 20.9995 18.5204 20.6311 17.9137 20.3798C17.307 20.1284 16.6567 19.999 16 19.999C15.3433 19.999 14.693 20.1284 14.0863 20.3798C13.4796 20.6311 12.9283 20.9995 12.464 21.464C12.2765 21.6512 12.0223 21.7564 11.7573 21.7564C11.4923 21.7564 11.2382 21.6512 11.0507 21.464L10.344 20.7573C10.1567 20.5698 10.0515 20.3156 10.0515 20.0506C10.0515 19.7856 10.1567 19.5315 10.344 19.344L10.3427 19.3426ZM14.5853 23.5853C14.7711 23.3995 14.9916 23.252 15.2343 23.1514C15.4771 23.0508 15.7372 22.9991 16 22.9991C16.2628 22.9991 16.5229 23.0508 16.7657 23.1514C17.0084 23.252 17.2289 23.3995 17.4147 23.5853C17.5076 23.6782 17.5813 23.7884 17.6316 23.9098C17.6819 24.0312 17.7078 24.1613 17.7078 24.2926C17.7078 24.424 17.6819 24.5541 17.6316 24.6755C17.5813 24.7968 17.5076 24.9071 17.4147 25L16.708 25.7066C16.6151 25.7996 16.5049 25.8733 16.3835 25.9236C16.2621 25.9739 16.132 25.9998 16.0007 25.9998C15.8693 25.9998 15.7392 25.9739 15.6178 25.9236C15.4965 25.8733 15.3862 25.7996 15.2933 25.7066L14.5867 25C14.3994 24.8125 14.2942 24.5583 14.2942 24.2933C14.2942 24.0283 14.3994 23.7741 14.5867 23.5866L14.5853 23.5853Z" fill="black"/>
</g>
<defs>
<clipPath id="clip0_61_45">
<rect width="32" height="32" fill="white"/>
</clipPath>
</defs>
</svg>
