<svg width="32" height="32" viewBox="0 0 32 32" fill="none" xmlns="http://www.w3.org/2000/svg">
<g clip-path="url(#clip0_61_55)">
<rect width="32" height="32" fill="white"/>
<line x1="4.12132" y1="4" x2="24" y2="23.8787" stroke="black" stroke-width="3" stroke-linecap="round"/>
<path d="M16 22.999C16.2627 22.999 16.5229 23.0508 16.7656 23.1514C17.0084 23.252 17.2293 23.3991 17.415 23.585C17.508 23.6778 17.5815 23.7888 17.6318 23.9102C17.682 24.0314 17.708 24.1617 17.708 24.293C17.708 24.4242 17.6821 24.5545 17.6318 24.6758C17.5816 24.797 17.5078 24.9072 17.415 25L16.708 25.707C16.6152 25.7998 16.505 25.8736 16.3838 25.9238C16.2625 25.9741 16.1322 26 16.001 26C15.8697 26 15.7394 25.974 15.6182 25.9238C15.4968 25.8735 15.3858 25.7999 15.293 25.707L14.5869 25C14.3996 24.8125 14.2939 24.558 14.2939 24.293C14.294 24.0281 14.3997 23.7743 14.5869 23.5869L14.585 23.585C14.7707 23.3991 14.9916 23.252 15.2344 23.1514C15.4771 23.0508 15.7373 22.999 16 22.999ZM15.999 19.999C15.3426 19.9992 14.6924 20.1287 14.0859 20.3799C13.4794 20.6312 12.9281 20.9995 12.4639 21.4639C12.2765 21.651 12.0226 21.7567 11.7578 21.7568C11.4928 21.7568 11.2383 21.6511 11.0508 21.4639L10.3438 20.7568C10.1567 20.5694 10.0518 20.3156 10.0518 20.0508C10.0518 19.7858 10.1565 19.5312 10.3438 19.3438L10.3428 19.3428C11.0857 18.5998 11.9678 18.0105 12.9385 17.6084C13.0992 17.5418 13.2625 17.4826 13.4268 17.4268L15.999 19.999ZM15.4941 11.0088C19.2343 10.8824 23.016 12.2452 25.8711 15.0996C25.964 15.1925 26.0376 15.3035 26.0879 15.4248C26.1381 15.5461 26.1641 15.6764 26.1641 15.8076C26.164 15.9389 26.1381 16.0692 26.0879 16.1904C26.0376 16.3116 25.9639 16.4219 25.8711 16.5146L25.1641 17.2217C25.0712 17.3147 24.9603 17.3881 24.8389 17.4385C24.7175 17.4888 24.5875 17.5146 24.4561 17.5146C24.3245 17.5146 24.1938 17.4889 24.0723 17.4385C23.9511 17.3881 23.8408 17.3146 23.748 17.2217C22.3864 15.8601 20.7039 14.8942 18.8789 14.3936L15.4941 11.0088ZM11.126 15.126C10.0495 15.654 9.05625 16.3579 8.19238 17.2217C8.00489 17.4089 7.75035 17.5137 7.48535 17.5137C7.22036 17.5137 6.96582 17.4089 6.77832 17.2217L6.07227 16.5146C5.885 16.3271 5.7793 16.0726 5.7793 15.8076C5.77939 15.5427 5.88508 15.289 6.07227 15.1016L6.07031 15.0996C6.93916 14.2308 7.89395 13.4999 8.90723 12.9072L11.126 15.126ZM6.72852 10.7285C5.74482 11.3669 4.81174 12.116 3.94922 12.9785C3.76172 13.1658 3.50719 13.2715 3.24219 13.2715C2.97736 13.2714 2.72352 13.1657 2.53613 12.9785L1.8291 12.2715C1.64209 12.084 1.53714 11.8302 1.53711 11.5654C1.53711 11.3004 1.64183 11.0459 1.8291 10.8584L1.82812 10.8574C2.68639 9.99931 3.60285 9.23496 4.56543 8.56543L6.72852 10.7285ZM10.3018 5.81641C17.0988 3.81485 24.7501 5.49525 30.1123 10.8574C30.2051 10.9502 30.2788 11.0604 30.3291 11.1816C30.3794 11.303 30.4053 11.4331 30.4053 11.5645C30.4053 11.6957 30.3793 11.826 30.3291 11.9473C30.2789 12.0685 30.205 12.1787 30.1123 12.2715L29.4053 12.9785C29.2178 13.1658 28.9632 13.2715 28.6982 13.2715C28.4334 13.2714 28.1796 13.1657 27.9922 12.9785C23.8579 8.8451 18.1247 7.28509 12.7842 8.29883L10.3018 5.81641Z" fill="black"/>
</g>
<defs>
<clipPath id="clip0_61_55">
<rect width="32" height="32" fill="white"/>
</clipPath>
</defs>
</svg>
