<svg width="98" height="82" viewBox="0 0 98 82" fill="none" xmlns="http://www.w3.org/2000/svg">
<rect width="98" height="82" fill="white"/>
<path d="M76.4703 20.6163V18.8117C76.4703 18.0417 76.5104 17.3278 76.5906 16.6701C76.6708 15.9964 76.8713 15.3467 77.1922 14.7211C77.513 14.0794 78.0183 13.4378 78.7081 12.7961C78.0183 12.1705 77.513 11.5449 77.1922 10.9193C76.8874 10.2776 76.6869 9.61993 76.5906 8.94619C76.5104 8.25641 76.4703 7.53455 76.4703 6.7806V5H79.1412V5.57749L79.1171 6.17905V6.63623L79.0931 7.09341C79.0931 7.83131 79.1813 8.52911 79.3578 9.18681C79.5342 9.82847 79.9673 10.4461 80.6571 11.0396C81.379 10.414 81.8201 9.77233 81.9805 9.11463C82.157 8.44089 82.2452 7.73506 82.2452 6.99716V6.5881L82.2212 6.13092V5.55343L82.1971 5H84.8921V6.7806C84.8921 7.5185 84.8439 8.23235 84.7477 8.92213C84.6675 9.59587 84.467 10.2536 84.1461 10.8952C83.8253 11.5208 83.32 12.1545 82.6302 12.7961C83.336 13.4378 83.8413 14.0794 84.1461 14.7211C84.467 15.3467 84.6675 15.9964 84.7477 16.6701C84.8439 17.3278 84.8921 18.0417 84.8921 18.8117V20.6163H82.1971L82.2212 20.0148V19.4373L82.2452 18.9801V18.571C82.2452 17.8171 82.157 17.1273 81.9805 16.5017C81.8041 15.86 81.3629 15.2184 80.6571 14.5767C79.9673 15.1863 79.5342 15.8039 79.3578 16.4295C79.1813 17.0391 79.0931 17.7289 79.0931 18.4989L79.1171 18.956V19.4132L79.1412 19.9907V20.6163H76.4703Z" fill="black"/>
<path d="M71.0475 20.6163C69.4914 20.6163 68.4006 20.3195 67.775 19.726C67.1494 19.1164 66.8366 18.0898 66.8366 16.6461V5.02405H69.5315L69.6037 16.6461V16.7664C69.6037 16.8947 69.6037 17.0391 69.6037 17.1995C69.6198 17.3599 69.6518 17.4963 69.7 17.6085H69.6759C69.7561 17.7369 69.9326 17.8411 70.2053 17.9214C70.478 18.0016 70.7747 18.0417 71.0956 18.0417C71.4324 18.0417 71.7453 17.9935 72.034 17.8973C72.3388 17.785 72.5072 17.6406 72.5393 17.4642L72.5874 5.02405H75.2583V15.8761C75.2583 16.6461 75.2182 17.3278 75.138 17.9214C75.0578 18.5149 74.8814 19.0122 74.6086 19.4132C74.352 19.7982 73.9349 20.095 73.3574 20.3035C72.796 20.512 72.026 20.6163 71.0475 20.6163Z" fill="black"/>
<path d="M59.3681 20.6163V5H62.0871V18.0657H65.9852V20.6163H59.3681Z" fill="black"/>
<path d="M53.7052 20.6163C52.1492 20.6163 51.0584 20.3115 50.4328 19.702C49.8232 19.0764 49.5184 18.0577 49.5184 16.6461V8.97025C49.5184 7.54257 49.8232 6.52394 50.4328 5.91436C51.0584 5.30479 52.1492 5 53.7052 5C55.2452 5 56.328 5.30479 56.9536 5.91436C57.5953 6.5079 57.9161 7.52653 57.9161 8.97025V15.8761C57.9161 16.6461 57.876 17.3278 57.7958 17.9214C57.7156 18.5149 57.5311 19.0122 57.2424 19.4132C56.9697 19.8143 56.5526 20.119 55.9911 20.3276C55.4297 20.5201 54.6677 20.6163 53.7052 20.6163ZM53.7534 18.0176C54.4592 18.0176 54.8763 17.8492 55.0046 17.5123C55.149 17.1594 55.2212 16.614 55.2212 15.8761V8.97025C55.2212 8.50505 55.1891 8.1762 55.1249 7.98371C55.0768 7.77517 54.9485 7.65486 54.7399 7.62277C54.5314 7.57465 54.1865 7.55059 53.7052 7.55059C53.224 7.55059 52.8711 7.59069 52.6465 7.6709C52.438 7.73506 52.3016 7.87142 52.2375 8.07995C52.1893 8.27245 52.1653 8.56922 52.1653 8.97025L52.2134 15.9964C52.2134 16.5418 52.2455 16.9589 52.3096 17.2476C52.3738 17.5364 52.5182 17.7369 52.7428 17.8492C52.9673 17.9615 53.3042 18.0176 53.7534 18.0176Z" fill="black"/>
<path d="M43.9631 20.6163V7.52653H41.4606V5H49.1365V7.52653H46.634V20.6163H43.9631Z" fill="black"/>
<path d="M36.8805 20.6163C35.3245 20.6163 34.2337 20.3115 33.6081 19.702C32.9985 19.0764 32.6937 18.0577 32.6937 16.6461V8.97025C32.6937 7.54257 32.9985 6.52394 33.6081 5.91436C34.2337 5.30479 35.3245 5 36.8805 5C38.4205 5 39.5033 5.30479 40.1289 5.91436C40.7706 6.5079 41.0914 7.52653 41.0914 8.97025V15.8761C41.0914 16.6461 41.0513 17.3278 40.9711 17.9214C40.8909 18.5149 40.7064 19.0122 40.4177 19.4132C40.145 19.8143 39.7279 20.119 39.1664 20.3276C38.605 20.5201 37.843 20.6163 36.8805 20.6163ZM36.9287 18.0176C37.6345 18.0176 38.0516 17.8492 38.1799 17.5123C38.3243 17.1594 38.3965 16.614 38.3965 15.8761V8.97025C38.3965 8.50505 38.3644 8.1762 38.3002 7.98371C38.2521 7.77517 38.1237 7.65486 37.9152 7.62277C37.7067 7.57465 37.3618 7.55059 36.8805 7.55059C36.3993 7.55059 36.0464 7.59069 35.8218 7.6709C35.6133 7.73506 35.4769 7.87142 35.4127 8.07995C35.3646 8.27245 35.3406 8.56922 35.3406 8.97025L35.3887 15.9964C35.3887 16.5418 35.4208 16.9589 35.4849 17.2476C35.5491 17.5364 35.6935 17.7369 35.9181 17.8492C36.1426 17.9615 36.4795 18.0176 36.9287 18.0176Z" fill="black"/>
<path d="M22.9689 20.6163V5H27.2038C28.3748 5 29.2812 5.17646 29.9228 5.52937C30.5645 5.86624 30.9896 6.41165 31.1981 7.16559C31.2944 7.48642 31.3585 7.87944 31.3906 8.34464C31.4227 8.80984 31.4387 9.25098 31.4387 9.66806C31.4387 10.0851 31.4387 10.3899 31.4387 10.5824C31.4387 11.2241 31.4067 11.8417 31.3425 12.4352C31.2783 13.0287 31.0939 13.5501 30.7891 13.9992C30.4843 14.4324 29.971 14.7532 29.2491 14.9617L31.4628 20.6163H28.5754L26.4579 15.2264H25.6638V20.6163H22.9689ZM25.6638 12.6999C26.4017 12.6999 26.9792 12.6838 27.3963 12.6518C27.8294 12.6197 28.1422 12.5395 28.3347 12.4111C28.5272 12.2668 28.6475 12.0502 28.6957 11.7615C28.7438 11.4567 28.7678 11.0316 28.7678 10.4862C28.7678 10.3418 28.7678 10.1012 28.7678 9.7643C28.7678 9.42743 28.7438 9.08254 28.6957 8.72963C28.6475 8.36068 28.5433 8.08798 28.3829 7.91152C28.1262 7.65486 27.7332 7.52653 27.2038 7.52653H25.6638V12.6999Z" fill="black"/>
<path d="M13.1209 20.6163V5.02405H17.3558C18.6231 5.02405 19.5615 5.20852 20.1711 5.57748C20.7807 5.94643 21.1817 6.45173 21.3742 7.09339C21.5667 7.73505 21.6629 8.47295 21.6629 9.30711V9.83647L21.6389 10.3658V10.799L21.6148 11.2802C21.6148 12.2587 21.4785 13.0207 21.2058 13.5661C20.9491 14.1115 20.5641 14.5045 20.0508 14.7452C19.5535 14.9697 18.9439 15.1061 18.2221 15.1542C17.5162 15.2023 16.7222 15.2264 15.8399 15.2264V20.6163H13.1209ZM15.8399 12.6999C16.5938 12.6999 17.1794 12.6918 17.5964 12.6758C18.0135 12.6598 18.3183 12.6116 18.5108 12.5314C18.7033 12.4352 18.8236 12.2908 18.8717 12.0983C18.9199 11.8898 18.9439 11.593 18.9439 11.208V9.04242C18.9439 8.51306 18.8236 8.1441 18.583 7.93557C18.3424 7.72703 18.0376 7.61474 17.6686 7.5987C17.2997 7.56661 16.9147 7.55057 16.5136 7.55057H15.8399V12.6999Z" fill="black"/>
<path d="M81.8089 35.6551C81.0674 35.6551 80.4778 35.5761 80.0402 35.4181C79.6147 35.2479 79.2986 35.0108 79.092 34.7069C78.8853 34.3909 78.7516 34.0019 78.6908 33.5399C78.6422 33.078 78.6179 32.5552 78.6179 31.9717H80.6419V32.3182L80.6237 32.6464V32.9382C80.6237 33.2421 80.6784 33.4487 80.7878 33.5581C80.8972 33.6676 81.189 33.7223 81.6631 33.7223H81.9731C82.277 33.6979 82.4958 33.6736 82.6295 33.6493C82.7754 33.6129 82.8666 33.5399 82.903 33.4305C82.9395 33.3089 82.9577 33.1144 82.9577 32.847V32.6464L82.976 32.4094V32.1541L82.9942 31.68C82.9942 31.5949 82.9881 31.4672 82.976 31.2971C82.976 31.1269 82.9516 30.9202 82.903 30.6771C82.8544 30.5677 82.7146 30.5008 82.4836 30.4765C82.2648 30.44 82.0642 30.4218 81.8819 30.4218H81.8089C81.0674 30.4218 80.4778 30.3428 80.0402 30.1847C79.6147 30.0267 79.2986 29.7957 79.092 29.4918C78.8853 29.1879 78.7516 28.8172 78.6908 28.3795C78.6422 27.9297 78.6179 27.4131 78.6179 26.8296C78.6179 25.7477 78.8549 24.9818 79.329 24.532C79.8031 24.0701 80.6298 23.8391 81.8089 23.8391C83.0003 23.8391 83.8269 24.0822 84.2889 24.5685C84.7629 25.0426 85 25.8267 85 26.9208H82.9577C82.9577 26.5318 82.9395 26.2582 82.903 26.1002C82.8666 25.93 82.7632 25.8328 82.593 25.8084C82.435 25.772 82.1736 25.7537 81.8089 25.7537C81.4443 25.7537 81.1768 25.772 81.0066 25.8084C80.8486 25.8449 80.7453 25.9422 80.6966 26.1002C80.6602 26.2461 80.6419 26.4892 80.6419 26.8296V27.1213L80.6237 27.5407C80.6237 27.6015 80.6237 27.7048 80.6237 27.8507C80.6359 27.9844 80.6723 28.1364 80.7331 28.3066C80.7453 28.3431 80.8425 28.3856 81.0249 28.4342C81.2194 28.4707 81.4807 28.4889 81.8089 28.4889C82.6113 28.4889 83.2312 28.5862 83.6689 28.7807C84.1065 28.963 84.4165 29.2244 84.5988 29.5648C84.7933 29.893 84.9088 30.2881 84.9453 30.75C84.9818 31.1998 85 31.6982 85 32.2453V32.6464C85 33.7405 84.7629 34.5185 84.2889 34.9804C83.8269 35.4302 83.0003 35.6551 81.8089 35.6551Z" fill="black"/>
<path d="M74.4376 35.6552C73.2584 35.6552 72.4318 35.4303 71.9577 34.9805C71.4836 34.5185 71.2466 33.7405 71.2466 32.6465V26.8296C71.2466 25.7599 71.4775 24.994 71.9395 24.5321C72.4136 24.058 73.2463 23.8209 74.4376 23.8209C75.6168 23.8209 76.4434 24.058 76.9175 24.5321C77.3916 25.0062 77.6287 25.8024 77.6287 26.9208H75.6046C75.6046 26.5561 75.5864 26.2947 75.5499 26.1367C75.5256 25.9665 75.4284 25.8632 75.2582 25.8267C75.1001 25.7781 74.8266 25.7538 74.4376 25.7538C74.0608 25.7538 73.7872 25.772 73.6171 25.8085C73.459 25.8328 73.3618 25.924 73.3253 26.082C73.301 26.2279 73.2888 26.4771 73.2888 26.8296V33.0476C73.3131 33.2543 73.459 33.4062 73.7265 33.5035C73.9939 33.6007 74.2796 33.6494 74.5835 33.6494C74.9846 33.6494 75.2582 33.6068 75.404 33.5217C75.5621 33.4245 75.6411 33.1692 75.6411 32.7559C75.6411 32.6586 75.635 32.5553 75.6229 32.4459C75.6229 32.3243 75.6168 32.1663 75.6046 31.9718H77.6287C77.6287 32.5553 77.5983 33.078 77.5375 33.54C77.4889 34.0019 77.3612 34.3909 77.1546 34.707C76.9479 35.0109 76.6318 35.2479 76.2064 35.4181C75.7809 35.5762 75.1913 35.6552 74.4376 35.6552Z" fill="black"/>
<path d="M68.1841 35.6551V23.8574H70.2447V35.6551H68.1841Z" fill="black"/>
<path d="M60.0645 35.6552V23.8209H62.0703L65.006 30.5313V23.8209H67.0665V35.6552H65.0243L62.0885 28.9448V35.6552H60.0645Z" fill="black"/>
<path d="M55.8278 35.6552C54.6486 35.6552 53.822 35.4242 53.3479 34.9623C52.8859 34.4882 52.655 33.7162 52.655 32.6465V26.8296C52.655 25.7477 52.8859 24.9758 53.3479 24.5138C53.822 24.0519 54.6486 23.8209 55.8278 23.8209C56.9948 23.8209 57.8154 24.0519 58.2895 24.5138C58.7757 24.9636 59.0188 25.7356 59.0188 26.8296V32.063C59.0188 32.6465 58.9884 33.1631 58.9277 33.6129C58.8669 34.0627 58.7271 34.4395 58.5083 34.7434C58.3016 35.0474 57.9855 35.2783 57.5601 35.4364C57.1346 35.5822 56.5572 35.6552 55.8278 35.6552ZM55.8643 33.6858C56.3991 33.6858 56.7152 33.5582 56.8125 33.3029C56.9219 33.0355 56.9766 32.6222 56.9766 32.063V26.8296C56.9766 26.4771 56.9523 26.2279 56.9036 26.082C56.8672 25.924 56.7699 25.8328 56.6119 25.8085C56.4538 25.772 56.1925 25.7538 55.8278 25.7538C55.4631 25.7538 55.1957 25.7842 55.0255 25.845C54.8674 25.8936 54.7641 25.9969 54.7155 26.155C54.679 26.3008 54.6608 26.5257 54.6608 26.8296L54.6972 32.1541C54.6972 32.5674 54.7216 32.8835 54.7702 33.1023C54.8188 33.3211 54.9282 33.4731 55.0984 33.5582C55.2686 33.6433 55.5239 33.6858 55.8643 33.6858Z" fill="black"/>
<path d="M45.2853 35.6552V23.8209H48.4946C49.382 23.8209 50.0689 23.9546 50.5551 24.2221C51.0414 24.4774 51.3635 24.8907 51.5216 25.462C51.5945 25.7052 51.6431 26.003 51.6674 26.3555C51.6918 26.7081 51.7039 27.0424 51.7039 27.3584C51.7039 27.6745 51.7039 27.9055 51.7039 28.0513C51.7039 28.5376 51.6796 29.0056 51.631 29.4554C51.5824 29.9052 51.4426 30.3003 51.2116 30.6407C50.9806 30.9689 50.5916 31.212 50.0446 31.37L51.7221 35.6552H49.534L47.9294 31.5706H47.3276V35.6552H45.2853ZM47.3276 29.656C47.8868 29.656 48.3244 29.6438 48.6405 29.6195C48.9687 29.5952 49.2058 29.5344 49.3517 29.4372C49.4975 29.3278 49.5887 29.1637 49.6252 28.9448C49.6616 28.7139 49.6799 28.3917 49.6799 27.9784C49.6799 27.869 49.6799 27.6867 49.6799 27.4314C49.6799 27.1761 49.6616 26.9147 49.6252 26.6473C49.5887 26.3677 49.5097 26.161 49.3881 26.0273C49.1936 25.8328 48.8958 25.7356 48.4946 25.7356H47.3276V29.656Z" fill="black"/>
<path d="M40.966 35.6552V25.7356H39.0696V23.8209H44.8865V25.7356H42.9901V35.6552H40.966Z" fill="black"/>
<path d="M35.5823 35.6552C34.4031 35.6552 33.5765 35.4303 33.1024 34.9805C32.6283 34.5185 32.3912 33.7405 32.3912 32.6465V26.8296C32.3912 25.7599 32.6222 24.994 33.0841 24.5321C33.5582 24.058 34.3909 23.8209 35.5823 23.8209C36.7614 23.8209 37.5881 24.058 38.0622 24.5321C38.5363 25.0062 38.7733 25.8024 38.7733 26.9208H36.7493C36.7493 26.5561 36.731 26.2947 36.6946 26.1367C36.6703 25.9665 36.573 25.8632 36.4028 25.8267C36.2448 25.7781 35.9713 25.7538 35.5823 25.7538C35.2054 25.7538 34.9319 25.772 34.7617 25.8085C34.6037 25.8328 34.5064 25.924 34.4699 26.082C34.4456 26.2279 34.4335 26.4771 34.4335 26.8296V33.0476C34.4578 33.2543 34.6037 33.4062 34.8711 33.5035C35.1385 33.6007 35.4242 33.6494 35.7281 33.6494C36.1293 33.6494 36.4028 33.6068 36.5487 33.5217C36.7067 33.4245 36.7857 33.1692 36.7857 32.7559C36.7857 32.6586 36.7797 32.5553 36.7675 32.4459C36.7675 32.3243 36.7614 32.1663 36.7493 31.9718H38.7733C38.7733 32.5553 38.7429 33.078 38.6821 33.54C38.6335 34.0019 38.5059 34.3909 38.2992 34.707C38.0926 35.0109 37.7765 35.2479 37.351 35.4181C36.9255 35.5762 36.336 35.6552 35.5823 35.6552Z" fill="black"/>
<path d="M25.6075 35.6552V23.8209H31.3696V25.7356H27.6498V28.489H30.2756V30.4218H27.6498V33.7223H31.3696V35.6552H25.6075Z" fill="black"/>
<path d="M19.8749 35.6552V23.8209H21.9354V33.7223H24.8894V35.6552H19.8749Z" fill="black"/>
<path d="M13 35.6552V23.8209H18.7621V25.7356H15.0423V28.489H17.6681V30.4218H15.0423V33.7223H18.7621V35.6552H13Z" fill="black"/>
<path d="M13.7194 64.1574V57H2.99998V78.8882H13.7194V64.7703L7.56859 68.5351V73.5693L9.74412 72.2561V74.4668H6.99505V61.4214H9.74412V64.1574H13.7194Z" fill="black"/>
<path d="M14.9109 57.0001V78.8882H25.6304V57.0001H14.9109ZM21.6551 74.4668H18.906V61.4215H21.6551V74.4668Z" fill="black"/>
<path d="M34.7725 57.0001H30.5797L26.8417 69.3669V78.8882H30.8368V74.5106L34.5154 76.8745V78.8882H38.5104V69.3669L34.7725 57.0001ZM30.995 69.5201L32.6761 63.9824L34.5154 70.0892V71.7746L30.995 69.5201Z" fill="black"/>
<path d="M49.3634 57.0001H38.7626V61.4434H42.0655V78.8882H46.0605V61.4434H49.3634V57.0001Z" fill="black"/>
<path d="M57.6057 62.9974L55.7268 57.0001H50.3473V78.8882H54.3424V66.2806L55.4499 69.8703L57.6057 62.9974ZM59.8208 57.0001L54.8566 73.3943H59.0692L61.225 66.3463V78.8882H65.22V57.0001H59.8208Z" fill="black"/>
<path d="M70.4067 57.0001H66.4116V78.8882H70.4067V57.0001Z" fill="black"/>
<path d="M75.6131 61.4215H77.7293L76.6613 65.0111L80.2608 67.1124L83.2274 57.0001H71.618V78.8882H75.6131V69.8484L79.2521 72.081V78.8882H83.2274V69.4763L75.6131 64.8141V61.4215Z" fill="black"/>
<path d="M91.0247 74.4668H88.2756V69.4763L92.4883 66.9154V61.8811L84.2806 66.8716V78.8882H95V71.7308H91.0247V74.4668ZM84.2806 57.0001V66.3901L88.2756 63.8729V61.4215H95V57.0001H84.2806Z" fill="black"/>
<path d="M46.039 41.161C45.9252 41.055 45.7748 40.9974 45.6193 41.0001C45.4639 41.0028 45.3156 41.0658 45.2057 41.1757C45.0957 41.2857 45.0328 41.434 45.03 41.5894C45.0273 41.7449 45.085 41.8953 45.191 42.009L48.167 44.985L45.191 47.961C45.132 48.016 45.0847 48.0822 45.0519 48.1558C45.0191 48.2294 45.0015 48.3089 45.0001 48.3894C44.9987 48.47 45.0135 48.55 45.0437 48.6247C45.0738 48.6994 45.1188 48.7673 45.1757 48.8243C45.2327 48.8812 45.3006 48.9262 45.3753 48.9563C45.45 48.9865 45.53 49.0013 45.6106 48.9999C45.6911 48.9985 45.7706 48.9809 45.8442 48.9481C45.9178 48.9153 45.984 48.868 46.039 48.809L49.015 45.833L51.991 48.809C52.0459 48.868 52.1121 48.9153 52.1857 48.9481C52.2593 48.9809 52.3388 48.9985 52.4193 48.9999C52.4999 49.0013 52.5799 48.9865 52.6546 48.9563C52.7294 48.9262 52.7972 48.8812 52.8542 48.8243C52.9112 48.7673 52.9561 48.6994 52.9863 48.6247C53.0164 48.55 53.0313 48.47 53.0298 48.3894C53.0284 48.3089 53.0108 48.2294 52.978 48.1558C52.9452 48.0822 52.8979 48.016 52.839 47.961L49.863 44.985L52.839 42.009C52.9449 41.8953 53.0026 41.7449 52.9999 41.5894C52.9972 41.434 52.9342 41.2857 52.8243 41.1757C52.7143 41.0658 52.566 41.0028 52.4106 41.0001C52.2551 40.9974 52.1047 41.055 51.991 41.161L49.015 44.137L46.039 41.161Z" fill="black" stroke="white" stroke-width="0.5"/>
</svg>
