<svg width="98" height="82" viewBox="0 0 98 82" fill="none" xmlns="http://www.w3.org/2000/svg">
<rect width="98" height="82" fill="white"/>
<path d="M76.4703 18.6163V16.8117C76.4703 16.0417 76.5104 15.3278 76.5906 14.6701C76.6708 13.9964 76.8713 13.3467 77.1922 12.7211C77.513 12.0794 78.0183 11.4378 78.7081 10.7961C78.0183 10.1705 77.513 9.5449 77.1922 8.91929C76.8874 8.27763 76.6869 7.61993 76.5906 6.94619C76.5104 6.25641 76.4703 5.53455 76.4703 4.7806V3H79.1412V3.57749L79.1171 4.17905V4.63623L79.0931 5.09341C79.0931 5.83131 79.1813 6.52911 79.3578 7.18681C79.5342 7.82847 79.9673 8.44607 80.6571 9.0396C81.379 8.41398 81.8201 7.77233 81.9805 7.11463C82.157 6.44089 82.2452 5.73506 82.2452 4.99716V4.5881L82.2212 4.13092V3.55343L82.1971 3H84.8921V4.7806C84.8921 5.5185 84.8439 6.23235 84.7477 6.92213C84.6675 7.59587 84.467 8.25357 84.1461 8.89522C83.8253 9.52084 83.32 10.1545 82.6302 10.7961C83.336 11.4378 83.8413 12.0794 84.1461 12.7211C84.467 13.3467 84.6675 13.9964 84.7477 14.6701C84.8439 15.3278 84.8921 16.0417 84.8921 16.8117V18.6163H82.1971L82.2212 18.0148V17.4373L82.2452 16.9801V16.571C82.2452 15.8171 82.157 15.1273 81.9805 14.5017C81.8041 13.86 81.3629 13.2184 80.6571 12.5767C79.9673 13.1863 79.5342 13.8039 79.3578 14.4295C79.1813 15.0391 79.0931 15.7289 79.0931 16.4989L79.1171 16.956V17.4132L79.1412 17.9907V18.6163H76.4703Z" fill="black"/>
<path d="M71.0475 18.6163C69.4914 18.6163 68.4006 18.3195 67.775 17.726C67.1494 17.1164 66.8366 16.0898 66.8366 14.6461V3.02405H69.5315L69.6037 14.6461V14.7664C69.6037 14.8947 69.6037 15.0391 69.6037 15.1995C69.6198 15.3599 69.6518 15.4963 69.7 15.6085H69.6759C69.7561 15.7369 69.9326 15.8411 70.2053 15.9214C70.478 16.0016 70.7747 16.0417 71.0956 16.0417C71.4324 16.0417 71.7453 15.9935 72.034 15.8973C72.3388 15.785 72.5072 15.6406 72.5393 15.4642L72.5874 3.02405H75.2583V13.8761C75.2583 14.6461 75.2182 15.3278 75.138 15.9214C75.0578 16.5149 74.8814 17.0122 74.6086 17.4132C74.352 17.7982 73.9349 18.095 73.3574 18.3035C72.796 18.512 72.026 18.6163 71.0475 18.6163Z" fill="black"/>
<path d="M59.3681 18.6163V3H62.0871V16.0657H65.9852V18.6163H59.3681Z" fill="black"/>
<path d="M53.7052 18.6163C52.1492 18.6163 51.0584 18.3115 50.4328 17.702C49.8232 17.0764 49.5184 16.0577 49.5184 14.6461V6.97025C49.5184 5.54257 49.8232 4.52394 50.4328 3.91436C51.0584 3.30479 52.1492 3 53.7052 3C55.2452 3 56.328 3.30479 56.9536 3.91436C57.5953 4.5079 57.9161 5.52653 57.9161 6.97025V13.8761C57.9161 14.6461 57.876 15.3278 57.7958 15.9214C57.7156 16.5149 57.5311 17.0122 57.2424 17.4132C56.9697 17.8143 56.5526 18.119 55.9911 18.3276C55.4297 18.5201 54.6677 18.6163 53.7052 18.6163ZM53.7534 16.0176C54.4592 16.0176 54.8763 15.8492 55.0046 15.5123C55.149 15.1594 55.2212 14.614 55.2212 13.8761V6.97025C55.2212 6.50505 55.1891 6.1762 55.1249 5.98371C55.0768 5.77517 54.9485 5.65486 54.7399 5.62277C54.5314 5.57465 54.1865 5.55059 53.7052 5.55059C53.224 5.55059 52.8711 5.59069 52.6465 5.6709C52.438 5.73506 52.3016 5.87142 52.2375 6.07995C52.1893 6.27245 52.1653 6.56922 52.1653 6.97025L52.2134 13.9964C52.2134 14.5418 52.2455 14.9589 52.3096 15.2476C52.3738 15.5364 52.5182 15.7369 52.7428 15.8492C52.9673 15.9615 53.3042 16.0176 53.7534 16.0176Z" fill="black"/>
<path d="M43.9631 18.6163V5.52653H41.4606V3H49.1365V5.52653H46.634V18.6163H43.9631Z" fill="black"/>
<path d="M36.8805 18.6163C35.3245 18.6163 34.2337 18.3115 33.6081 17.702C32.9985 17.0764 32.6937 16.0577 32.6937 14.6461V6.97025C32.6937 5.54257 32.9985 4.52394 33.6081 3.91436C34.2337 3.30479 35.3245 3 36.8805 3C38.4205 3 39.5033 3.30479 40.1289 3.91436C40.7706 4.5079 41.0914 5.52653 41.0914 6.97025V13.8761C41.0914 14.6461 41.0513 15.3278 40.9711 15.9214C40.8909 16.5149 40.7064 17.0122 40.4177 17.4132C40.145 17.8143 39.7279 18.119 39.1664 18.3276C38.605 18.5201 37.843 18.6163 36.8805 18.6163ZM36.9287 16.0176C37.6345 16.0176 38.0516 15.8492 38.1799 15.5123C38.3243 15.1594 38.3965 14.614 38.3965 13.8761V6.97025C38.3965 6.50505 38.3644 6.1762 38.3002 5.98371C38.2521 5.77517 38.1237 5.65486 37.9152 5.62277C37.7067 5.57465 37.3618 5.55059 36.8805 5.55059C36.3993 5.55059 36.0464 5.59069 35.8218 5.6709C35.6133 5.73506 35.4769 5.87142 35.4127 6.07995C35.3646 6.27245 35.3406 6.56922 35.3406 6.97025L35.3887 13.9964C35.3887 14.5418 35.4208 14.9589 35.4849 15.2476C35.5491 15.5364 35.6935 15.7369 35.9181 15.8492C36.1426 15.9615 36.4795 16.0176 36.9287 16.0176Z" fill="black"/>
<path d="M22.9689 18.6163V3H27.2038C28.3748 3 29.2812 3.17646 29.9228 3.52937C30.5645 3.86624 30.9896 4.41165 31.1981 5.16559C31.2944 5.48642 31.3585 5.87944 31.3906 6.34464C31.4227 6.80984 31.4387 7.25098 31.4387 7.66806C31.4387 8.08513 31.4387 8.38992 31.4387 8.58242C31.4387 9.22407 31.4067 9.84167 31.3425 10.4352C31.2783 11.0287 31.0939 11.5501 30.7891 11.9992C30.4843 12.4324 29.971 12.7532 29.2491 12.9617L31.4628 18.6163H28.5754L26.4579 13.2264H25.6638V18.6163H22.9689ZM25.6638 10.6999C26.4017 10.6999 26.9792 10.6838 27.3963 10.6518C27.8294 10.6197 28.1422 10.5395 28.3347 10.4111C28.5272 10.2668 28.6475 10.0502 28.6957 9.76146C28.7438 9.45667 28.7678 9.03158 28.7678 8.48617C28.7678 8.3418 28.7678 8.10117 28.7678 7.7643C28.7678 7.42743 28.7438 7.08254 28.6957 6.72963C28.6475 6.36068 28.5433 6.08798 28.3829 5.91152C28.1262 5.65486 27.7332 5.52653 27.2038 5.52653H25.6638V10.6999Z" fill="black"/>
<path d="M13.1209 18.6163V3.02405H17.3558C18.6231 3.02405 19.5615 3.20852 20.1711 3.57748C20.7807 3.94643 21.1817 4.45173 21.3742 5.09339C21.5667 5.73505 21.6629 6.47295 21.6629 7.30711V7.83647L21.6389 8.36584V8.79896L21.6148 9.2802C21.6148 10.2587 21.4785 11.0207 21.2058 11.5661C20.9491 12.1115 20.5641 12.5045 20.0508 12.7452C19.5535 12.9697 18.9439 13.1061 18.2221 13.1542C17.5162 13.2023 16.7222 13.2264 15.8399 13.2264V18.6163H13.1209ZM15.8399 10.6999C16.5938 10.6999 17.1794 10.6918 17.5964 10.6758C18.0135 10.6598 18.3183 10.6116 18.5108 10.5314C18.7033 10.4352 18.8236 10.2908 18.8717 10.0983C18.9199 9.88978 18.9439 9.59301 18.9439 9.20802V7.04242C18.9439 6.51306 18.8236 6.1441 18.583 5.93557C18.3424 5.72703 18.0376 5.61474 17.6686 5.5987C17.2997 5.56661 16.9147 5.55057 16.5136 5.55057H15.8399V10.6999Z" fill="black"/>
<path d="M81.8089 33.6551C81.0674 33.6551 80.4778 33.5761 80.0402 33.4181C79.6147 33.2479 79.2986 33.0108 79.092 32.7069C78.8853 32.3909 78.7516 32.0019 78.6908 31.5399C78.6422 31.078 78.6179 30.5552 78.6179 29.9717H80.6419V30.3182L80.6237 30.6464V30.9382C80.6237 31.2421 80.6784 31.4487 80.7878 31.5581C80.8972 31.6676 81.189 31.7223 81.6631 31.7223H81.9731C82.277 31.6979 82.4958 31.6736 82.6295 31.6493C82.7754 31.6129 82.8666 31.5399 82.903 31.4305C82.9395 31.3089 82.9577 31.1144 82.9577 30.847V30.6464L82.976 30.4094V30.1541L82.9942 29.68C82.9942 29.5949 82.9881 29.4672 82.976 29.2971C82.976 29.1269 82.9516 28.9202 82.903 28.6771C82.8544 28.5677 82.7146 28.5008 82.4836 28.4765C82.2648 28.44 82.0642 28.4218 81.8819 28.4218H81.8089C81.0674 28.4218 80.4778 28.3428 80.0402 28.1847C79.6147 28.0267 79.2986 27.7957 79.092 27.4918C78.8853 27.1879 78.7516 26.8172 78.6908 26.3795C78.6422 25.9297 78.6179 25.4131 78.6179 24.8296C78.6179 23.7477 78.8549 22.9818 79.329 22.532C79.8031 22.0701 80.6298 21.8391 81.8089 21.8391C83.0003 21.8391 83.8269 22.0822 84.2889 22.5685C84.7629 23.0426 85 23.8267 85 24.9208H82.9577C82.9577 24.5318 82.9395 24.2582 82.903 24.1002C82.8666 23.93 82.7632 23.8328 82.593 23.8084C82.435 23.772 82.1736 23.7537 81.8089 23.7537C81.4443 23.7537 81.1768 23.772 81.0066 23.8084C80.8486 23.8449 80.7453 23.9422 80.6966 24.1002C80.6602 24.2461 80.6419 24.4892 80.6419 24.8296V25.1213L80.6237 25.5407C80.6237 25.6015 80.6237 25.7048 80.6237 25.8507C80.6359 25.9844 80.6723 26.1364 80.7331 26.3066C80.7453 26.3431 80.8425 26.3856 81.0249 26.4342C81.2194 26.4707 81.4807 26.4889 81.8089 26.4889C82.6113 26.4889 83.2312 26.5862 83.6689 26.7807C84.1065 26.963 84.4165 27.2244 84.5988 27.5648C84.7933 27.893 84.9088 28.2881 84.9453 28.75C84.9818 29.1998 85 29.6982 85 30.2453V30.6464C85 31.7405 84.7629 32.5185 84.2889 32.9804C83.8269 33.4302 83.0003 33.6551 81.8089 33.6551Z" fill="black"/>
<path d="M74.4376 33.6552C73.2584 33.6552 72.4318 33.4303 71.9577 32.9805C71.4836 32.5185 71.2466 31.7405 71.2466 30.6465V24.8296C71.2466 23.7599 71.4775 22.994 71.9395 22.5321C72.4136 22.058 73.2463 21.8209 74.4376 21.8209C75.6168 21.8209 76.4434 22.058 76.9175 22.5321C77.3916 23.0062 77.6287 23.8024 77.6287 24.9208H75.6046C75.6046 24.5561 75.5864 24.2947 75.5499 24.1367C75.5256 23.9665 75.4284 23.8632 75.2582 23.8267C75.1001 23.7781 74.8266 23.7538 74.4376 23.7538C74.0608 23.7538 73.7872 23.772 73.6171 23.8085C73.459 23.8328 73.3618 23.924 73.3253 24.082C73.301 24.2279 73.2888 24.4771 73.2888 24.8296V31.0476C73.3131 31.2543 73.459 31.4062 73.7265 31.5035C73.9939 31.6007 74.2796 31.6494 74.5835 31.6494C74.9846 31.6494 75.2582 31.6068 75.404 31.5217C75.5621 31.4245 75.6411 31.1692 75.6411 30.7559C75.6411 30.6586 75.635 30.5553 75.6229 30.4459C75.6229 30.3243 75.6168 30.1663 75.6046 29.9718H77.6287C77.6287 30.5553 77.5983 31.078 77.5375 31.54C77.4889 32.0019 77.3612 32.3909 77.1546 32.707C76.9479 33.0109 76.6318 33.2479 76.2064 33.4181C75.7809 33.5762 75.1913 33.6552 74.4376 33.6552Z" fill="black"/>
<path d="M68.1841 33.6551V21.8574H70.2447V33.6551H68.1841Z" fill="black"/>
<path d="M60.0645 33.6552V21.8209H62.0703L65.006 28.5313V21.8209H67.0665V33.6552H65.0243L62.0885 26.9448V33.6552H60.0645Z" fill="black"/>
<path d="M55.8278 33.6552C54.6486 33.6552 53.822 33.4242 53.3479 32.9623C52.8859 32.4882 52.655 31.7162 52.655 30.6465V24.8296C52.655 23.7477 52.8859 22.9758 53.3479 22.5138C53.822 22.0519 54.6486 21.8209 55.8278 21.8209C56.9948 21.8209 57.8154 22.0519 58.2895 22.5138C58.7757 22.9636 59.0188 23.7356 59.0188 24.8296V30.063C59.0188 30.6465 58.9884 31.1631 58.9277 31.6129C58.8669 32.0627 58.7271 32.4395 58.5083 32.7434C58.3016 33.0474 57.9855 33.2783 57.5601 33.4364C57.1346 33.5822 56.5572 33.6552 55.8278 33.6552ZM55.8643 31.6858C56.3991 31.6858 56.7152 31.5582 56.8125 31.3029C56.9219 31.0355 56.9766 30.6222 56.9766 30.063V24.8296C56.9766 24.4771 56.9523 24.2279 56.9036 24.082C56.8672 23.924 56.7699 23.8328 56.6119 23.8085C56.4538 23.772 56.1925 23.7538 55.8278 23.7538C55.4631 23.7538 55.1957 23.7842 55.0255 23.845C54.8674 23.8936 54.7641 23.9969 54.7155 24.155C54.679 24.3008 54.6608 24.5257 54.6608 24.8296L54.6972 30.1541C54.6972 30.5674 54.7216 30.8835 54.7702 31.1023C54.8188 31.3211 54.9282 31.4731 55.0984 31.5582C55.2686 31.6433 55.5239 31.6858 55.8643 31.6858Z" fill="black"/>
<path d="M45.2853 33.6552V21.8209H48.4946C49.382 21.8209 50.0689 21.9546 50.5551 22.2221C51.0414 22.4774 51.3635 22.8907 51.5216 23.462C51.5945 23.7052 51.6431 24.003 51.6674 24.3555C51.6918 24.7081 51.7039 25.0424 51.7039 25.3584C51.7039 25.6745 51.7039 25.9055 51.7039 26.0513C51.7039 26.5376 51.6796 27.0056 51.631 27.4554C51.5824 27.9052 51.4426 28.3003 51.2116 28.6407C50.9806 28.9689 50.5916 29.212 50.0446 29.37L51.7221 33.6552H49.534L47.9294 29.5706H47.3276V33.6552H45.2853ZM47.3276 27.656C47.8868 27.656 48.3244 27.6438 48.6405 27.6195C48.9687 27.5952 49.2058 27.5344 49.3517 27.4372C49.4975 27.3278 49.5887 27.1637 49.6252 26.9448C49.6616 26.7139 49.6799 26.3917 49.6799 25.9784C49.6799 25.869 49.6799 25.6867 49.6799 25.4314C49.6799 25.1761 49.6616 24.9147 49.6252 24.6473C49.5887 24.3677 49.5097 24.161 49.3881 24.0273C49.1936 23.8328 48.8958 23.7356 48.4946 23.7356H47.3276V27.656Z" fill="black"/>
<path d="M40.966 33.6552V23.7356H39.0696V21.8209H44.8865V23.7356H42.9901V33.6552H40.966Z" fill="black"/>
<path d="M35.5823 33.6552C34.4031 33.6552 33.5765 33.4303 33.1024 32.9805C32.6283 32.5185 32.3912 31.7405 32.3912 30.6465V24.8296C32.3912 23.7599 32.6222 22.994 33.0841 22.5321C33.5582 22.058 34.3909 21.8209 35.5823 21.8209C36.7614 21.8209 37.5881 22.058 38.0622 22.5321C38.5363 23.0062 38.7733 23.8024 38.7733 24.9208H36.7493C36.7493 24.5561 36.731 24.2947 36.6946 24.1367C36.6703 23.9665 36.573 23.8632 36.4028 23.8267C36.2448 23.7781 35.9713 23.7538 35.5823 23.7538C35.2054 23.7538 34.9319 23.772 34.7617 23.8085C34.6037 23.8328 34.5064 23.924 34.4699 24.082C34.4456 24.2279 34.4335 24.4771 34.4335 24.8296V31.0476C34.4578 31.2543 34.6037 31.4062 34.8711 31.5035C35.1385 31.6007 35.4242 31.6494 35.7281 31.6494C36.1293 31.6494 36.4028 31.6068 36.5487 31.5217C36.7067 31.4245 36.7857 31.1692 36.7857 30.7559C36.7857 30.6586 36.7797 30.5553 36.7675 30.4459C36.7675 30.3243 36.7614 30.1663 36.7493 29.9718H38.7733C38.7733 30.5553 38.7429 31.078 38.6821 31.54C38.6335 32.0019 38.5059 32.3909 38.2992 32.707C38.0926 33.0109 37.7765 33.2479 37.351 33.4181C36.9255 33.5762 36.336 33.6552 35.5823 33.6552Z" fill="black"/>
<path d="M25.6075 33.6552V21.8209H31.3696V23.7356H27.6498V26.489H30.2756V28.4218H27.6498V31.7223H31.3696V33.6552H25.6075Z" fill="black"/>
<path d="M19.8749 33.6552V21.8209H21.9354V31.7223H24.8894V33.6552H19.8749Z" fill="black"/>
<path d="M13 33.6552V21.8209H18.7621V23.7356H15.0423V26.489H17.6681V28.4218H15.0423V31.7223H18.7621V33.6552H13Z" fill="black"/>
<path d="M13.7194 64.1574V57H2.99998V78.8882H13.7194V64.7703L7.56859 68.5351V73.5693L9.74412 72.2561V74.4668H6.99505V61.4214H9.74412V64.1574H13.7194Z" fill="black"/>
<path d="M14.9109 57.0001V78.8882H25.6304V57.0001H14.9109ZM21.6551 74.4668H18.906V61.4215H21.6551V74.4668Z" fill="black"/>
<path d="M34.7725 57.0001H30.5797L26.8417 69.3669V78.8882H30.8368V74.5106L34.5154 76.8745V78.8882H38.5104V69.3669L34.7725 57.0001ZM30.995 69.5201L32.6761 63.9824L34.5154 70.0892V71.7746L30.995 69.5201Z" fill="black"/>
<path d="M49.3634 57.0001H38.7626V61.4434H42.0655V78.8882H46.0605V61.4434H49.3634V57.0001Z" fill="black"/>
<path d="M57.6057 62.9974L55.7268 57.0001H50.3473V78.8882H54.3424V66.2806L55.4499 69.8703L57.6057 62.9974ZM59.8208 57.0001L54.8566 73.3943H59.0692L61.225 66.3463V78.8882H65.22V57.0001H59.8208Z" fill="black"/>
<path d="M70.4067 57.0001H66.4116V78.8882H70.4067V57.0001Z" fill="black"/>
<path d="M75.6131 61.4215H77.7293L76.6613 65.0111L80.2608 67.1124L83.2274 57.0001H71.618V78.8882H75.6131V69.8484L79.2521 72.081V78.8882H83.2274V69.4763L75.6131 64.8141V61.4215Z" fill="black"/>
<path d="M91.0247 74.4668H88.2756V69.4763L92.4883 66.9154V61.8811L84.2806 66.8716V78.8882H95V71.7308H91.0247V74.4668ZM84.2806 57.0001V66.3901L88.2756 63.8729V61.4215H95V57.0001H84.2806Z" fill="black"/>
<path d="M46.024 41.176C45.9103 41.07 45.7598 41.0123 45.6044 41.015C45.449 41.0178 45.3006 41.0808 45.1907 41.1907C45.0808 41.3006 45.0178 41.4489 45.0151 41.6044C45.0123 41.7598 45.07 41.9102 45.176 42.024L48.152 45L45.176 47.976C45.1171 48.0309 45.0698 48.0972 45.037 48.1708C45.0042 48.2444 44.9866 48.3238 44.9851 48.4044C44.9837 48.4849 44.9985 48.565 45.0287 48.6397C45.0589 48.7144 45.1038 48.7822 45.1608 48.8392C45.2178 48.8962 45.2856 48.9411 45.3603 48.9713C45.435 49.0015 45.5151 49.0163 45.5956 49.0149C45.6762 49.0134 45.7556 48.9958 45.8292 48.963C45.9028 48.9302 45.9691 48.8829 46.024 48.824L49 45.848L51.976 48.824C52.0309 48.8829 52.0972 48.9302 52.1708 48.963C52.2444 48.9958 52.3238 49.0134 52.4044 49.0149C52.485 49.0163 52.565 49.0015 52.6397 48.9713C52.7144 48.9411 52.7823 48.8962 52.8392 48.8392C52.8962 48.7822 52.9411 48.7144 52.9713 48.6397C53.0015 48.565 53.0163 48.4849 53.0149 48.4044C53.0135 48.3238 52.9958 48.2444 52.963 48.1708C52.9302 48.0972 52.883 48.0309 52.824 47.976L49.848 45L52.824 42.024C52.93 41.9102 52.9877 41.7598 52.985 41.6044C52.9822 41.4489 52.9192 41.3006 52.8093 41.1907C52.6994 41.0808 52.5511 41.0178 52.3956 41.015C52.2402 41.0123 52.0898 41.07 51.976 41.176L49 44.152L46.024 41.176Z" fill="black"/>
</svg>
