<svg width="210" height="39" viewBox="0 0 210 39" fill="none" xmlns="http://www.w3.org/2000/svg">
<rect width="210" height="39" fill="white"/>
<path d="M70.4703 19.6163V17.8117C70.4703 17.0417 70.5104 16.3278 70.5906 15.6701C70.6708 14.9964 70.8713 14.3467 71.1922 13.7211C71.513 13.0794 72.0183 12.4378 72.7081 11.7961C72.0183 11.1705 71.513 10.5449 71.1922 9.91929C70.8874 9.27763 70.6869 8.61993 70.5906 7.94619C70.5104 7.25641 70.4703 6.53455 70.4703 5.7806V4H73.1412V4.57749L73.1171 5.17905V5.63623L73.0931 6.09341C73.0931 6.83131 73.1813 7.52911 73.3578 8.18681C73.5342 8.82847 73.9673 9.44607 74.6571 10.0396C75.379 9.41398 75.8201 8.77233 75.9805 8.11463C76.157 7.44089 76.2452 6.73506 76.2452 5.99716V5.5881L76.2212 5.13092V4.55343L76.1971 4H78.8921V5.7806C78.8921 6.5185 78.8439 7.23235 78.7477 7.92213C78.6675 8.59587 78.467 9.25357 78.1461 9.89522C77.8253 10.5208 77.32 11.1545 76.6302 11.7961C77.336 12.4378 77.8413 13.0794 78.1461 13.7211C78.467 14.3467 78.6675 14.9964 78.7477 15.6701C78.8439 16.3278 78.8921 17.0417 78.8921 17.8117V19.6163H76.1971L76.2212 19.0148V18.4373L76.2452 17.9801V17.571C76.2452 16.8171 76.157 16.1273 75.9805 15.5017C75.8041 14.86 75.3629 14.2184 74.6571 13.5767C73.9673 14.1863 73.5342 14.8039 73.3578 15.4295C73.1813 16.0391 73.0931 16.7289 73.0931 17.4989L73.1171 17.956V18.4132L73.1412 18.9907V19.6163H70.4703Z" fill="black"/>
<path d="M65.0475 19.6163C63.4914 19.6163 62.4006 19.3195 61.775 18.726C61.1494 18.1164 60.8366 17.0898 60.8366 15.6461V4.02405H63.5315L63.6037 15.6461V15.7664C63.6037 15.8947 63.6037 16.0391 63.6037 16.1995C63.6198 16.3599 63.6518 16.4963 63.7 16.6085H63.6759C63.7561 16.7369 63.9326 16.8411 64.2053 16.9214C64.478 17.0016 64.7747 17.0417 65.0956 17.0417C65.4324 17.0417 65.7453 16.9935 66.034 16.8973C66.3388 16.785 66.5072 16.6406 66.5393 16.4642L66.5874 4.02405H69.2583V14.8761C69.2583 15.6461 69.2182 16.3278 69.138 16.9214C69.0578 17.5149 68.8814 18.0122 68.6086 18.4132C68.352 18.7982 67.9349 19.095 67.3574 19.3035C66.796 19.512 66.026 19.6163 65.0475 19.6163Z" fill="black"/>
<path d="M53.3681 19.6163V4H56.0871V17.0657H59.9852V19.6163H53.3681Z" fill="black"/>
<path d="M47.7052 19.6163C46.1492 19.6163 45.0584 19.3115 44.4328 18.702C43.8232 18.0764 43.5184 17.0577 43.5184 15.6461V7.97025C43.5184 6.54257 43.8232 5.52394 44.4328 4.91436C45.0584 4.30479 46.1492 4 47.7052 4C49.2452 4 50.328 4.30479 50.9536 4.91436C51.5953 5.5079 51.9161 6.52653 51.9161 7.97025V14.8761C51.9161 15.6461 51.876 16.3278 51.7958 16.9214C51.7156 17.5149 51.5311 18.0122 51.2424 18.4132C50.9697 18.8143 50.5526 19.119 49.9911 19.3276C49.4297 19.5201 48.6677 19.6163 47.7052 19.6163ZM47.7534 17.0176C48.4592 17.0176 48.8763 16.8492 49.0046 16.5123C49.149 16.1594 49.2212 15.614 49.2212 14.8761V7.97025C49.2212 7.50505 49.1891 7.1762 49.1249 6.98371C49.0768 6.77517 48.9485 6.65486 48.7399 6.62277C48.5314 6.57465 48.1865 6.55059 47.7052 6.55059C47.224 6.55059 46.8711 6.59069 46.6465 6.6709C46.438 6.73506 46.3016 6.87142 46.2375 7.07995C46.1893 7.27245 46.1653 7.56922 46.1653 7.97025L46.2134 14.9964C46.2134 15.5418 46.2455 15.9589 46.3096 16.2476C46.3738 16.5364 46.5182 16.7369 46.7428 16.8492C46.9673 16.9615 47.3042 17.0176 47.7534 17.0176Z" fill="black"/>
<path d="M37.9631 19.6163V6.52653H35.4606V4H43.1365V6.52653H40.634V19.6163H37.9631Z" fill="black"/>
<path d="M30.8805 19.6163C29.3245 19.6163 28.2337 19.3115 27.6081 18.702C26.9985 18.0764 26.6937 17.0577 26.6937 15.6461V7.97025C26.6937 6.54257 26.9985 5.52394 27.6081 4.91436C28.2337 4.30479 29.3245 4 30.8805 4C32.4205 4 33.5033 4.30479 34.1289 4.91436C34.7706 5.5079 35.0914 6.52653 35.0914 7.97025V14.8761C35.0914 15.6461 35.0513 16.3278 34.9711 16.9214C34.8909 17.5149 34.7064 18.0122 34.4177 18.4132C34.145 18.8143 33.7279 19.119 33.1664 19.3276C32.605 19.5201 31.843 19.6163 30.8805 19.6163ZM30.9287 17.0176C31.6345 17.0176 32.0516 16.8492 32.1799 16.5123C32.3243 16.1594 32.3965 15.614 32.3965 14.8761V7.97025C32.3965 7.50505 32.3644 7.1762 32.3002 6.98371C32.2521 6.77517 32.1237 6.65486 31.9152 6.62277C31.7067 6.57465 31.3618 6.55059 30.8805 6.55059C30.3993 6.55059 30.0464 6.59069 29.8218 6.6709C29.6133 6.73506 29.4769 6.87142 29.4127 7.07995C29.3646 7.27245 29.3406 7.56922 29.3406 7.97025L29.3887 14.9964C29.3887 15.5418 29.4208 15.9589 29.4849 16.2476C29.5491 16.5364 29.6935 16.7369 29.9181 16.8492C30.1426 16.9615 30.4795 17.0176 30.9287 17.0176Z" fill="black"/>
<path d="M16.9689 19.6163V4H21.2038C22.3748 4 23.2812 4.17646 23.9228 4.52937C24.5645 4.86624 24.9896 5.41165 25.1981 6.16559C25.2944 6.48642 25.3585 6.87944 25.3906 7.34464C25.4227 7.80984 25.4387 8.25098 25.4387 8.66806C25.4387 9.08513 25.4387 9.38992 25.4387 9.58242C25.4387 10.2241 25.4067 10.8417 25.3425 11.4352C25.2783 12.0287 25.0939 12.5501 24.7891 12.9992C24.4843 13.4324 23.971 13.7532 23.2491 13.9617L25.4628 19.6163H22.5754L20.4579 14.2264H19.6638V19.6163H16.9689ZM19.6638 11.6999C20.4017 11.6999 20.9792 11.6838 21.3963 11.6518C21.8294 11.6197 22.1422 11.5395 22.3347 11.4111C22.5272 11.2668 22.6475 11.0502 22.6957 10.7615C22.7438 10.4567 22.7678 10.0316 22.7678 9.48617C22.7678 9.3418 22.7678 9.10117 22.7678 8.7643C22.7678 8.42743 22.7438 8.08254 22.6957 7.72963C22.6475 7.36068 22.5433 7.08798 22.3829 6.91152C22.1262 6.65486 21.7332 6.52653 21.2038 6.52653H19.6638V11.6999Z" fill="black"/>
<path d="M7.12088 19.6163V4.02405H11.3558C12.6231 4.02405 13.5615 4.20852 14.1711 4.57748C14.7807 4.94643 15.1817 5.45173 15.3742 6.09339C15.5667 6.73505 15.6629 7.47295 15.6629 8.30711V8.83647L15.6389 9.36584V9.79896L15.6148 10.2802C15.6148 11.2587 15.4785 12.0207 15.2058 12.5661C14.9491 13.1115 14.5641 13.5045 14.0508 13.7452C13.5535 13.9697 12.9439 14.1061 12.2221 14.1542C11.5162 14.2023 10.7222 14.2264 9.8399 14.2264V19.6163H7.12088ZM9.8399 11.6999C10.5938 11.6999 11.1794 11.6918 11.5964 11.6758C12.0135 11.6598 12.3183 11.6116 12.5108 11.5314C12.7033 11.4352 12.8236 11.2908 12.8717 11.0983C12.9199 10.8898 12.9439 10.593 12.9439 10.208V8.04242C12.9439 7.51306 12.8236 7.1441 12.583 6.93557C12.3424 6.72703 12.0376 6.61474 11.6686 6.5987C11.2997 6.56661 10.9147 6.55057 10.5136 6.55057H9.8399V11.6999Z" fill="black"/>
<path d="M75.8089 34.6551C75.0674 34.6551 74.4778 34.5761 74.0402 34.4181C73.6147 34.2479 73.2986 34.0108 73.092 33.7069C72.8853 33.3909 72.7516 33.0019 72.6908 32.5399C72.6422 32.078 72.6179 31.5552 72.6179 30.9717H74.6419V31.3182L74.6237 31.6464V31.9382C74.6237 32.2421 74.6784 32.4487 74.7878 32.5581C74.8972 32.6676 75.189 32.7223 75.6631 32.7223H75.9731C76.277 32.6979 76.4958 32.6736 76.6295 32.6493C76.7754 32.6129 76.8666 32.5399 76.903 32.4305C76.9395 32.3089 76.9577 32.1144 76.9577 31.847V31.6464L76.976 31.4094V31.1541L76.9942 30.68C76.9942 30.5949 76.9881 30.4672 76.976 30.2971C76.976 30.1269 76.9516 29.9202 76.903 29.6771C76.8544 29.5677 76.7146 29.5008 76.4836 29.4765C76.2648 29.44 76.0642 29.4218 75.8819 29.4218H75.8089C75.0674 29.4218 74.4778 29.3428 74.0402 29.1847C73.6147 29.0267 73.2986 28.7957 73.092 28.4918C72.8853 28.1879 72.7516 27.8172 72.6908 27.3795C72.6422 26.9297 72.6179 26.4131 72.6179 25.8296C72.6179 24.7477 72.8549 23.9818 73.329 23.532C73.8031 23.0701 74.6298 22.8391 75.8089 22.8391C77.0003 22.8391 77.8269 23.0822 78.2889 23.5685C78.763 24.0426 79 24.8267 79 25.9208H76.9577C76.9577 25.5318 76.9395 25.2582 76.903 25.1002C76.8666 24.93 76.7632 24.8328 76.593 24.8084C76.435 24.772 76.1736 24.7537 75.8089 24.7537C75.4443 24.7537 75.1768 24.772 75.0066 24.8084C74.8486 24.8449 74.7453 24.9422 74.6966 25.1002C74.6602 25.2461 74.6419 25.4892 74.6419 25.8296V26.1213L74.6237 26.5407C74.6237 26.6015 74.6237 26.7048 74.6237 26.8507C74.6359 26.9844 74.6723 27.1364 74.7331 27.3066C74.7453 27.3431 74.8425 27.3856 75.0249 27.4342C75.2194 27.4707 75.4807 27.4889 75.8089 27.4889C76.6113 27.4889 77.2312 27.5862 77.6689 27.7807C78.1065 27.963 78.4165 28.2244 78.5988 28.5648C78.7933 28.893 78.9088 29.2881 78.9453 29.75C78.9818 30.1998 79 30.6982 79 31.2453V31.6464C79 32.7405 78.763 33.5185 78.2889 33.9804C77.8269 34.4302 77.0003 34.6551 75.8089 34.6551Z" fill="black"/>
<path d="M68.4376 34.6552C67.2584 34.6552 66.4318 34.4303 65.9577 33.9805C65.4836 33.5185 65.2466 32.7405 65.2466 31.6465V25.8296C65.2466 24.7599 65.4775 23.994 65.9395 23.5321C66.4136 23.058 67.2463 22.8209 68.4376 22.8209C69.6168 22.8209 70.4434 23.058 70.9175 23.5321C71.3916 24.0062 71.6287 24.8024 71.6287 25.9208H69.6046C69.6046 25.5561 69.5864 25.2947 69.5499 25.1367C69.5256 24.9665 69.4284 24.8632 69.2582 24.8267C69.1001 24.7781 68.8266 24.7538 68.4376 24.7538C68.0608 24.7538 67.7872 24.772 67.6171 24.8085C67.459 24.8328 67.3618 24.924 67.3253 25.082C67.301 25.2279 67.2888 25.4771 67.2888 25.8296V32.0476C67.3131 32.2543 67.459 32.4062 67.7265 32.5035C67.9939 32.6007 68.2796 32.6494 68.5835 32.6494C68.9846 32.6494 69.2582 32.6068 69.404 32.5217C69.5621 32.4245 69.6411 32.1692 69.6411 31.7559C69.6411 31.6586 69.635 31.5553 69.6229 31.4459C69.6229 31.3243 69.6168 31.1663 69.6046 30.9718H71.6287C71.6287 31.5553 71.5983 32.078 71.5375 32.54C71.4889 33.0019 71.3612 33.3909 71.1546 33.707C70.9479 34.0109 70.6318 34.2479 70.2064 34.4181C69.7809 34.5762 69.1913 34.6552 68.4376 34.6552Z" fill="black"/>
<path d="M62.1841 34.6551V22.8574H64.2447V34.6551H62.1841Z" fill="black"/>
<path d="M54.0645 34.6552V22.8209H56.0703L59.006 29.5313V22.8209H61.0665V34.6552H59.0243L56.0885 27.9448V34.6552H54.0645Z" fill="black"/>
<path d="M49.8278 34.6552C48.6486 34.6552 47.822 34.4242 47.3479 33.9623C46.8859 33.4882 46.655 32.7162 46.655 31.6465V25.8296C46.655 24.7477 46.8859 23.9758 47.3479 23.5138C47.822 23.0519 48.6486 22.8209 49.8278 22.8209C50.9948 22.8209 51.8154 23.0519 52.2895 23.5138C52.7757 23.9636 53.0188 24.7356 53.0188 25.8296V31.063C53.0188 31.6465 52.9884 32.1631 52.9277 32.6129C52.8669 33.0627 52.7271 33.4395 52.5083 33.7434C52.3016 34.0474 51.9855 34.2783 51.5601 34.4364C51.1346 34.5822 50.5572 34.6552 49.8278 34.6552ZM49.8643 32.6858C50.3991 32.6858 50.7152 32.5582 50.8125 32.3029C50.9219 32.0355 50.9766 31.6222 50.9766 31.063V25.8296C50.9766 25.4771 50.9523 25.2279 50.9036 25.082C50.8672 24.924 50.7699 24.8328 50.6119 24.8085C50.4538 24.772 50.1925 24.7538 49.8278 24.7538C49.4631 24.7538 49.1957 24.7842 49.0255 24.845C48.8674 24.8936 48.7641 24.9969 48.7155 25.155C48.679 25.3008 48.6608 25.5257 48.6608 25.8296L48.6972 31.1541C48.6972 31.5674 48.7216 31.8835 48.7702 32.1023C48.8188 32.3211 48.9282 32.4731 49.0984 32.5582C49.2686 32.6433 49.5239 32.6858 49.8643 32.6858Z" fill="black"/>
<path d="M39.2853 34.6552V22.8209H42.4946C43.382 22.8209 44.0689 22.9546 44.5551 23.2221C45.0414 23.4774 45.3635 23.8907 45.5216 24.462C45.5945 24.7052 45.6431 25.003 45.6674 25.3555C45.6918 25.7081 45.7039 26.0424 45.7039 26.3584C45.7039 26.6745 45.7039 26.9055 45.7039 27.0513C45.7039 27.5376 45.6796 28.0056 45.631 28.4554C45.5824 28.9052 45.4426 29.3003 45.2116 29.6407C44.9806 29.9689 44.5916 30.212 44.0446 30.37L45.7221 34.6552H43.534L41.9294 30.5706H41.3276V34.6552H39.2853ZM41.3276 28.656C41.8868 28.656 42.3244 28.6438 42.6405 28.6195C42.9687 28.5952 43.2058 28.5344 43.3517 28.4372C43.4975 28.3278 43.5887 28.1637 43.6252 27.9448C43.6616 27.7139 43.6799 27.3917 43.6799 26.9784C43.6799 26.869 43.6799 26.6867 43.6799 26.4314C43.6799 26.1761 43.6616 25.9147 43.6252 25.6473C43.5887 25.3677 43.5097 25.161 43.3881 25.0273C43.1936 24.8328 42.8958 24.7356 42.4946 24.7356H41.3276V28.656Z" fill="black"/>
<path d="M34.966 34.6552V24.7356H33.0696V22.8209H38.8865V24.7356H36.9901V34.6552H34.966Z" fill="black"/>
<path d="M29.5823 34.6552C28.4031 34.6552 27.5765 34.4303 27.1024 33.9805C26.6283 33.5185 26.3912 32.7405 26.3912 31.6465V25.8296C26.3912 24.7599 26.6222 23.994 27.0841 23.5321C27.5582 23.058 28.3909 22.8209 29.5823 22.8209C30.7614 22.8209 31.5881 23.058 32.0622 23.5321C32.5363 24.0062 32.7733 24.8024 32.7733 25.9208H30.7493C30.7493 25.5561 30.731 25.2947 30.6946 25.1367C30.6703 24.9665 30.573 24.8632 30.4028 24.8267C30.2448 24.7781 29.9713 24.7538 29.5823 24.7538C29.2054 24.7538 28.9319 24.772 28.7617 24.8085C28.6037 24.8328 28.5064 24.924 28.4699 25.082C28.4456 25.2279 28.4335 25.4771 28.4335 25.8296V32.0476C28.4578 32.2543 28.6037 32.4062 28.8711 32.5035C29.1385 32.6007 29.4242 32.6494 29.7281 32.6494C30.1293 32.6494 30.4028 32.6068 30.5487 32.5217C30.7067 32.4245 30.7857 32.1692 30.7857 31.7559C30.7857 31.6586 30.7797 31.5553 30.7675 31.4459C30.7675 31.3243 30.7614 31.1663 30.7493 30.9718H32.7733C32.7733 31.5553 32.7429 32.078 32.6821 32.54C32.6335 33.0019 32.5059 33.3909 32.2992 33.707C32.0926 34.0109 31.7765 34.2479 31.351 34.4181C30.9255 34.5762 30.336 34.6552 29.5823 34.6552Z" fill="black"/>
<path d="M19.6075 34.6552V22.8209H25.3696V24.7356H21.6498V27.489H24.2756V29.4218H21.6498V32.7223H25.3696V34.6552H19.6075Z" fill="black"/>
<path d="M13.8749 34.6552V22.8209H15.9354V32.7223H18.8894V34.6552H13.8749Z" fill="black"/>
<path d="M7 34.6552V22.8209H12.7621V24.7356H9.04227V27.489H11.6681V29.4218H9.04227V32.7223H12.7621V34.6552H7Z" fill="black"/>
<path d="M121.719 15.1574V8H111V29.8882H121.719V15.7703L115.569 19.5351V24.5693L117.744 23.2561V25.4668H114.995V12.4214H117.744V15.1574H121.719Z" fill="black"/>
<path d="M122.911 8V29.8882H133.63V8H122.911ZM129.655 25.4668H126.906V12.4214H129.655V25.4668Z" fill="black"/>
<path d="M142.773 8H138.58L134.842 20.3668V29.8882H138.837V25.5105L142.515 27.8745V29.8882H146.51V20.3668L142.773 8ZM138.995 20.52L140.676 14.9823L142.515 21.0891V22.7745L138.995 20.52Z" fill="black"/>
<path d="M157.363 8H146.763V12.4433H150.066V29.8882H154.061V12.4433H157.363V8Z" fill="black"/>
<path d="M165.606 13.9974L163.727 8H158.347V29.8882H162.342V17.2806L163.45 20.8702L165.606 13.9974ZM167.821 8L162.857 24.3942H167.069L169.225 17.3463V29.8882H173.22V8H167.821Z" fill="black"/>
<path d="M178.407 8H174.412V29.8882H178.407V8Z" fill="black"/>
<path d="M183.613 12.4214H185.729L184.661 16.0111L188.261 18.1123L191.227 8H179.618V29.8882H183.613V20.8484L187.252 23.081V29.8882H191.227V20.4763L183.613 15.8141V12.4214Z" fill="black"/>
<path d="M199.025 25.4668H196.276V20.4763L200.488 17.9153V12.8811L192.281 17.8716V29.8882H203V22.7307H199.025V25.4668ZM192.281 8V17.39L196.276 14.8729V12.4214H203V8H192.281Z" fill="black"/>
<path d="M92.024 15.176C91.9103 15.07 91.7598 15.0123 91.6044 15.015C91.449 15.0178 91.3006 15.0808 91.1907 15.1907C91.0808 15.3006 91.0178 15.4489 91.0151 15.6044C91.0123 15.7598 91.07 15.9102 91.176 16.024L94.152 19L91.176 21.976C91.1171 22.0309 91.0698 22.0972 91.037 22.1708C91.0042 22.2444 90.9866 22.3238 90.9851 22.4044C90.9837 22.4849 90.9985 22.565 91.0287 22.6397C91.0589 22.7144 91.1038 22.7822 91.1608 22.8392C91.2178 22.8962 91.2856 22.9411 91.3603 22.9713C91.435 23.0015 91.5151 23.0163 91.5956 23.0149C91.6762 23.0134 91.7556 22.9958 91.8292 22.963C91.9028 22.9302 91.9691 22.8829 92.024 22.824L95 19.848L97.976 22.824C98.0309 22.8829 98.0972 22.9302 98.1708 22.963C98.2444 22.9958 98.3238 23.0134 98.4044 23.0149C98.485 23.0163 98.565 23.0015 98.6397 22.9713C98.7144 22.9411 98.7823 22.8962 98.8392 22.8392C98.8962 22.7822 98.9411 22.7144 98.9713 22.6397C99.0015 22.565 99.0163 22.4849 99.0149 22.4044C99.0135 22.3238 98.9958 22.2444 98.963 22.1708C98.9302 22.0972 98.883 22.0309 98.824 21.976L95.848 19L98.824 16.024C98.93 15.9102 98.9877 15.7598 98.985 15.6044C98.9822 15.4489 98.9192 15.3006 98.8093 15.1907C98.6994 15.0808 98.5511 15.0178 98.3956 15.015C98.2402 15.0123 98.0898 15.07 97.976 15.176L95 18.152L92.024 15.176Z" fill="black"/>
</svg>
