<svg width="98" height="82" viewBox="0 0 98 82" fill="none" xmlns="http://www.w3.org/2000/svg">
<rect width="98" height="82" fill="white"/>
<path d="M81.5365 21.3391V19.2198C81.5365 18.3155 81.5836 17.4772 81.6778 16.7049C81.772 15.9136 82.0075 15.1507 82.3842 14.416C82.761 13.6625 83.3544 12.9089 84.1644 12.1554C83.3544 11.4207 82.761 10.686 82.3842 9.95133C82.0263 9.1978 81.7908 8.42543 81.6778 7.63422C81.5836 6.82417 81.5365 5.97645 81.5365 5.09105V3H84.6731V3.67818L84.6448 4.38461V4.92151L84.6166 5.4584C84.6166 6.32496 84.7202 7.14442 84.9274 7.91679C85.1346 8.67032 85.6432 9.3956 86.4533 10.0926C87.301 9.35792 87.8191 8.60439 88.0075 7.83202C88.2147 7.04081 88.3183 6.21193 88.3183 5.34537V4.86499L88.29 4.3281V3.64992L88.2618 3H91.4266V5.09105C91.4266 5.95761 91.3701 6.79591 91.2571 7.60596C91.1629 8.39717 90.9274 9.16954 90.5506 9.92307C90.1739 10.6578 89.5804 11.4019 88.7704 12.1554C89.5993 12.9089 90.1927 13.6625 90.5506 14.416C90.9274 15.1507 91.1629 15.9136 91.2571 16.7049C91.3701 17.4772 91.4266 18.3155 91.4266 19.2198V21.3391H88.2618L88.29 20.6326V19.9545L88.3183 19.4176V18.9372C88.3183 18.0518 88.2147 17.2417 88.0075 16.507C87.8002 15.7535 87.2822 15 86.4533 14.2465C85.6432 14.9623 85.1346 15.6876 84.9274 16.4223C84.7202 17.1381 84.6166 17.9482 84.6166 18.8524L84.6448 19.3893V19.9262L84.6731 20.6044V21.3391H81.5365Z" fill="black"/>
<path d="M75.1681 21.3391C73.3408 21.3391 72.0598 20.9906 71.3251 20.2935C70.5904 19.5777 70.2231 18.372 70.2231 16.6766V3.02826H73.3879L73.4727 16.6766V16.8179C73.4727 16.9686 73.4727 17.1381 73.4727 17.3265C73.4915 17.5149 73.5292 17.675 73.5857 17.8069H73.5575C73.6517 17.9576 73.8589 18.08 74.1791 18.1742C74.4994 18.2684 74.8479 18.3155 75.2246 18.3155C75.6202 18.3155 75.9876 18.259 76.3267 18.146C76.6846 18.0141 76.8824 17.8446 76.9201 17.6373L76.9766 3.02826H80.1132V15.7724C80.1132 16.6766 80.0661 17.4772 79.9719 18.1742C79.8777 18.8713 79.6705 19.4552 79.3502 19.9262C79.0488 20.3783 78.559 20.7268 77.8808 20.9717C77.2215 21.2166 76.3173 21.3391 75.1681 21.3391Z" fill="black"/>
<path d="M61.4525 21.3391V3H64.6456V18.3438H69.2233V21.3391H61.4525Z" fill="black"/>
<path d="M54.8023 21.3391C52.975 21.3391 51.694 20.9811 50.9593 20.2653C50.2434 19.5306 49.8855 18.3344 49.8855 16.6766V7.66248C49.8855 5.98587 50.2434 4.78964 50.9593 4.07378C51.694 3.35793 52.975 3 54.8023 3C56.6108 3 57.8823 3.35793 58.617 4.07378C59.3706 4.7708 59.7473 5.96703 59.7473 7.66248V15.7724C59.7473 16.6766 59.7002 17.4772 59.606 18.1742C59.5119 18.8713 59.2952 19.4552 58.9561 19.9262C58.6359 20.3972 58.1461 20.7551 57.4867 21C56.8274 21.226 55.9326 21.3391 54.8023 21.3391ZM54.8588 18.2873C55.6877 18.2873 56.1775 18.0895 56.3282 17.6939C56.4977 17.2794 56.5825 16.6389 56.5825 15.7724V7.66248C56.5825 7.11617 56.5448 6.72998 56.4695 6.50392C56.413 6.25902 56.2623 6.11774 56.0174 6.08006C55.7725 6.02354 55.3674 5.99529 54.8023 5.99529C54.2371 5.99529 53.8227 6.04238 53.559 6.13657C53.3141 6.21193 53.1539 6.37205 53.0786 6.61695C53.0221 6.84301 52.9938 7.19152 52.9938 7.66248L53.0503 15.9136C53.0503 16.5541 53.088 17.0439 53.1634 17.383C53.2387 17.7221 53.4083 17.9576 53.672 18.0895C53.9357 18.2213 54.3313 18.2873 54.8588 18.2873Z" fill="black"/>
<path d="M43.3616 21.3391V5.96703H40.4228V3H49.4369V5.96703H46.4981V21.3391H43.3616Z" fill="black"/>
<path d="M35.0442 21.3391C33.2169 21.3391 31.9359 20.9811 31.2012 20.2653C30.4853 19.5306 30.1274 18.3344 30.1274 16.6766V7.66248C30.1274 5.98587 30.4853 4.78964 31.2012 4.07378C31.9359 3.35793 33.2169 3 35.0442 3C36.8526 3 38.1242 3.35793 38.8589 4.07378C39.6125 4.7708 39.9892 5.96703 39.9892 7.66248V15.7724C39.9892 16.6766 39.9421 17.4772 39.8479 18.1742C39.7537 18.8713 39.5371 19.4552 39.198 19.9262C38.8778 20.3972 38.388 20.7551 37.7286 21C37.0693 21.226 36.1745 21.3391 35.0442 21.3391ZM35.1007 18.2873C35.9296 18.2873 36.4194 18.0895 36.5701 17.6939C36.7396 17.2794 36.8244 16.6389 36.8244 15.7724V7.66248C36.8244 7.11617 36.7867 6.72998 36.7114 6.50392C36.6548 6.25902 36.5041 6.11774 36.2592 6.08006C36.0143 6.02354 35.6093 5.99529 35.0442 5.99529C34.479 5.99529 34.0646 6.04238 33.8008 6.13657C33.5559 6.21193 33.3958 6.37205 33.3205 6.61695C33.264 6.84301 33.2357 7.19152 33.2357 7.66248L33.2922 15.9136C33.2922 16.5541 33.3299 17.0439 33.4052 17.383C33.4806 17.7221 33.6501 17.9576 33.9139 18.0895C34.1776 18.2213 34.5732 18.2873 35.1007 18.2873Z" fill="black"/>
<path d="M18.707 21.3391V3H23.6803C25.0555 3 26.1198 3.20722 26.8734 3.62166C27.6269 4.01727 28.1261 4.65777 28.371 5.54317C28.484 5.91993 28.5594 6.38147 28.5971 6.92778C28.6347 7.47409 28.6536 7.99215 28.6536 8.48194C28.6536 8.97174 28.6536 9.32966 28.6536 9.55572C28.6536 10.3093 28.6159 11.0345 28.5406 11.7315C28.4652 12.4286 28.2486 13.0408 27.8906 13.5683C27.5327 14.0769 26.9299 14.4537 26.0822 14.6986L28.6818 21.3391H25.2909L22.8043 15.0094H21.8718V21.3391H18.707ZM21.8718 12.0424C22.7384 12.0424 23.4165 12.0235 23.9063 11.9859C24.415 11.9482 24.7823 11.854 25.0084 11.7033C25.2344 11.5337 25.3757 11.2794 25.4322 10.9403C25.4888 10.5824 25.517 10.0832 25.517 9.44269C25.517 9.27315 25.517 8.99057 25.517 8.59497C25.517 8.19937 25.4888 7.79434 25.4322 7.3799C25.3757 6.94662 25.2533 6.62637 25.0649 6.41915C24.7635 6.11774 24.3019 5.96703 23.6803 5.96703H21.8718V12.0424Z" fill="black"/>
<path d="M7.14195 21.3391V3.02826H12.1153C13.6035 3.02826 14.7055 3.2449 15.4214 3.67818C16.1372 4.11146 16.6082 4.70486 16.8342 5.4584C17.0603 6.21193 17.1733 7.07849 17.1733 8.05808V8.67974L17.1451 9.30141V9.81004L17.1168 10.3752C17.1168 11.5243 16.9567 12.4191 16.6364 13.0596C16.335 13.7001 15.8829 14.1617 15.2801 14.4443C14.6961 14.708 13.9802 14.8681 13.1325 14.9246C12.3036 14.9811 11.3711 15.0094 10.335 15.0094V21.3391H7.14195ZM10.335 12.0424C11.2204 12.0424 11.908 12.033 12.3978 12.0141C12.8876 11.9953 13.2456 11.9388 13.4716 11.8446C13.6977 11.7315 13.839 11.562 13.8955 11.3359C13.952 11.091 13.9802 10.7425 13.9802 10.2904V7.74725C13.9802 7.12559 13.839 6.6923 13.5564 6.44741C13.2738 6.20251 12.9159 6.07064 12.4826 6.0518C12.0493 6.01413 11.5972 5.99529 11.1262 5.99529H10.335V12.0424Z" fill="black"/>
<path d="M87.8059 38.9999C86.9351 38.9999 86.2427 38.9071 85.7288 38.7216C85.2291 38.5217 84.858 38.2433 84.6153 37.8864C84.3726 37.5152 84.2155 37.0584 84.1442 36.5159C84.0871 35.9735 84.0585 35.3596 84.0585 34.6743H86.4354V35.0812L86.414 35.4667V35.8093C86.414 36.1662 86.4783 36.4089 86.6067 36.5373C86.7352 36.6658 87.0779 36.7301 87.6346 36.7301H87.9987C88.3555 36.7015 88.6125 36.673 88.7695 36.6444C88.9409 36.6016 89.0479 36.5159 89.0908 36.3875C89.1336 36.2447 89.155 36.0163 89.155 35.7022V35.4667L89.1764 35.1883V34.8885L89.1978 34.3317C89.1978 34.2318 89.1907 34.0819 89.1764 33.882C89.1764 33.6822 89.1479 33.4395 89.0908 33.154C89.0337 33.0255 88.8695 32.947 88.5982 32.9184C88.3413 32.8756 88.1057 32.8542 87.8916 32.8542H87.8059C86.9351 32.8542 86.2427 32.7614 85.7288 32.5758C85.2291 32.3902 84.858 32.119 84.6153 31.7621C84.3726 31.4052 84.2155 30.9698 84.1442 30.4558C84.0871 29.9276 84.0585 29.3209 84.0585 28.6356C84.0585 27.3651 84.3369 26.4657 84.8936 25.9375C85.4504 25.395 86.4212 25.1238 87.8059 25.1238C89.205 25.1238 90.1757 25.4093 90.7182 25.9803C91.275 26.5371 91.5533 27.4579 91.5533 28.7427H89.155C89.155 28.2859 89.1336 27.9647 89.0908 27.7791C89.0479 27.5792 88.9266 27.465 88.7267 27.4365C88.5411 27.3936 88.2342 27.3722 87.8059 27.3722C87.3776 27.3722 87.0636 27.3936 86.8637 27.4365C86.6781 27.4793 86.5568 27.5935 86.4997 27.7791C86.4569 27.9504 86.4354 28.2359 86.4354 28.6356V28.9783L86.414 29.4708C86.414 29.5422 86.414 29.6635 86.414 29.8348C86.4283 29.9919 86.4711 30.1703 86.5425 30.3702C86.5568 30.413 86.671 30.463 86.8851 30.5201C87.1135 30.5629 87.4205 30.5843 87.8059 30.5843C88.7481 30.5843 89.4762 30.6985 89.9901 30.9269C90.5041 31.1411 90.8681 31.448 91.0822 31.8477C91.3107 32.2332 91.4463 32.6971 91.4891 33.2396C91.5319 33.7678 91.5533 34.3531 91.5533 34.9956V35.4667C91.5533 36.7515 91.275 37.6651 90.7182 38.2076C90.1757 38.7358 89.205 38.9999 87.8059 38.9999Z" fill="black"/>
<path d="M79.1494 39C77.7646 39 76.7939 38.7359 76.2371 38.2077C75.6803 37.6652 75.4019 36.7515 75.4019 35.4667V28.6357C75.4019 27.3794 75.6732 26.48 76.2157 25.9376C76.7724 25.3808 77.7503 25.1024 79.1494 25.1024C80.5341 25.1024 81.5049 25.3808 82.0617 25.9376C82.6184 26.4943 82.8968 27.4294 82.8968 28.7428H80.5199C80.5199 28.3145 80.4984 28.0076 80.4556 27.822C80.4271 27.6221 80.3129 27.5008 80.113 27.4579C79.9274 27.4008 79.6062 27.3723 79.1494 27.3723C78.7068 27.3723 78.3856 27.3937 78.1857 27.4365C78.0002 27.4651 77.886 27.5721 77.8431 27.7577C77.8146 27.929 77.8003 28.2217 77.8003 28.6357V35.9378C77.8289 36.1805 78.0002 36.359 78.3142 36.4732C78.6283 36.5874 78.9638 36.6445 79.3207 36.6445C79.7918 36.6445 80.113 36.5945 80.2843 36.4946C80.4699 36.3804 80.5627 36.0806 80.5627 35.5952C80.5627 35.481 80.5555 35.3596 80.5413 35.2312C80.5413 35.0884 80.5341 34.9028 80.5199 34.6744H82.8968C82.8968 35.3596 82.8611 35.9735 82.7897 36.516C82.7326 37.0585 82.5827 37.5153 82.34 37.8865C82.0973 38.2434 81.7262 38.5217 81.2265 38.7216C80.7269 38.9072 80.0345 39 79.1494 39Z" fill="black"/>
<path d="M71.8056 38.9999V25.1452H74.2254V38.9999H71.8056Z" fill="black"/>
<path d="M62.2702 39V25.1024H64.6258L68.0734 32.9827V25.1024H70.4931V39H68.0948L64.6472 31.1197V39H62.2702Z" fill="black"/>
<path d="M57.2949 39C55.9102 39 54.9394 38.7287 54.3826 38.1863C53.8402 37.6295 53.5689 36.723 53.5689 35.4667V28.6357C53.5689 27.3651 53.8402 26.4586 54.3826 25.9161C54.9394 25.3737 55.9102 25.1024 57.2949 25.1024C58.6654 25.1024 59.629 25.3737 60.1858 25.9161C60.7568 26.4444 61.0423 27.3509 61.0423 28.6357V34.7815C61.0423 35.4667 61.0066 36.0734 60.9353 36.6016C60.8639 37.1299 60.6997 37.5724 60.4427 37.9293C60.2001 38.2862 59.8289 38.5574 59.3292 38.743C58.8296 38.9143 58.1515 39 57.2949 39ZM57.3377 36.6873C57.9659 36.6873 58.3371 36.5374 58.4513 36.2376C58.5797 35.9235 58.644 35.4382 58.644 34.7815V28.6357C58.644 28.2217 58.6154 27.929 58.5583 27.7577C58.5155 27.5721 58.4013 27.4651 58.2157 27.4365C58.0301 27.3937 57.7232 27.3723 57.2949 27.3723C56.8666 27.3723 56.5526 27.408 56.3527 27.4794C56.1671 27.5365 56.0458 27.6578 55.9887 27.8434C55.9458 28.0147 55.9244 28.2788 55.9244 28.6357L55.9673 34.8885C55.9673 35.3739 55.9958 35.7451 56.0529 36.0021C56.11 36.259 56.2385 36.4375 56.4384 36.5374C56.6382 36.6373 56.938 36.6873 57.3377 36.6873Z" fill="black"/>
<path d="M44.9144 39V25.1024H48.6832C49.7253 25.1024 50.5319 25.2595 51.103 25.5735C51.674 25.8733 52.0523 26.3587 52.2379 27.0297C52.3235 27.3152 52.3807 27.6649 52.4092 28.0789C52.4378 28.4929 52.452 28.8855 52.452 29.2567C52.452 29.6279 52.452 29.8991 52.452 30.0704C52.452 30.6415 52.4235 31.1911 52.3664 31.7193C52.3093 32.2475 52.1451 32.7115 51.8739 33.1112C51.6026 33.4966 51.1458 33.7822 50.5034 33.9677L52.4734 39H49.9038L48.0194 34.2033H47.3127V39H44.9144ZM47.3127 31.9548C47.9694 31.9548 48.4833 31.9406 48.8545 31.912C49.24 31.8835 49.5183 31.8121 49.6896 31.6979C49.861 31.5694 49.968 31.3767 50.0109 31.1197C50.0537 30.8485 50.0751 30.4701 50.0751 29.9848C50.0751 29.8563 50.0751 29.6421 50.0751 29.3424C50.0751 29.0426 50.0537 28.7356 50.0109 28.4216C49.968 28.0932 49.8752 27.8505 49.7325 27.6935C49.5041 27.4651 49.1543 27.3509 48.6832 27.3509H47.3127V31.9548Z" fill="black"/>
<path d="M39.842 39V27.3509H37.6149V25.1024H44.4459V27.3509H42.2189V39H39.842Z" fill="black"/>
<path d="M33.5195 39C32.1348 39 31.164 38.7359 30.6072 38.2077C30.0505 37.6652 29.7721 36.7515 29.7721 35.4667V28.6357C29.7721 27.3794 30.0433 26.48 30.5858 25.9376C31.1426 25.3808 32.1205 25.1024 33.5195 25.1024C34.9043 25.1024 35.875 25.3808 36.4318 25.9376C36.9886 26.4943 37.2669 27.4294 37.2669 28.7428H34.89C34.89 28.3145 34.8686 28.0076 34.8258 27.822C34.7972 27.6221 34.683 27.5008 34.4831 27.4579C34.2975 27.4008 33.9763 27.3723 33.5195 27.3723C33.077 27.3723 32.7558 27.3937 32.5559 27.4365C32.3703 27.4651 32.2561 27.5721 32.2133 27.7577C32.1847 27.929 32.1704 28.2217 32.1704 28.6357V35.9378C32.199 36.1805 32.3703 36.359 32.6844 36.4732C32.9984 36.5874 33.3339 36.6445 33.6908 36.6445C34.1619 36.6445 34.4831 36.5945 34.6544 36.4946C34.84 36.3804 34.9328 36.0806 34.9328 35.5952C34.9328 35.481 34.9257 35.3596 34.9114 35.2312C34.9114 35.0884 34.9043 34.9028 34.89 34.6744H37.2669C37.2669 35.3596 37.2312 35.9735 37.1599 36.516C37.1028 37.0585 36.9529 37.5153 36.7102 37.8865C36.4675 38.2434 36.0963 38.5217 35.5967 38.7216C35.097 38.9072 34.4046 39 33.5195 39Z" fill="black"/>
<path d="M21.8057 39V25.1024H28.5724V27.3509H24.204V30.5844H27.2876V32.8542H24.204V36.7301H28.5724V39H21.8057Z" fill="black"/>
<path d="M15.0735 39V25.1024H17.4933V36.7301H20.9623V39H15.0735Z" fill="black"/>
<path d="M7 39V25.1024H13.7668V27.3509H9.39835V30.5844H12.4819V32.8542H9.39835V36.7301H13.7668V39H7Z" fill="black"/>
<path d="M13.7194 64.1574V57H2.99998V78.8882H13.7194V64.7703L7.56859 68.5351V73.5693L9.74412 72.2561V74.4668H6.99505V61.4214H9.74412V64.1574H13.7194Z" fill="black"/>
<path d="M14.9109 57.0001V78.8882H25.6304V57.0001H14.9109ZM21.6551 74.4668H18.906V61.4215H21.6551V74.4668Z" fill="black"/>
<path d="M34.7725 57.0001H30.5797L26.8417 69.3669V78.8882H30.8368V74.5106L34.5154 76.8745V78.8882H38.5104V69.3669L34.7725 57.0001ZM30.995 69.5201L32.6761 63.9824L34.5154 70.0892V71.7746L30.995 69.5201Z" fill="black"/>
<path d="M49.3634 57.0001H38.7626V61.4434H42.0655V78.8882H46.0605V61.4434H49.3634V57.0001Z" fill="black"/>
<path d="M57.6057 62.9974L55.7268 57.0001H50.3473V78.8882H54.3424V66.2806L55.4499 69.8703L57.6057 62.9974ZM59.8208 57.0001L54.8566 73.3943H59.0692L61.225 66.3463V78.8882H65.22V57.0001H59.8208Z" fill="black"/>
<path d="M70.4067 57.0001H66.4116V78.8882H70.4067V57.0001Z" fill="black"/>
<path d="M75.6131 61.4215H77.7293L76.6613 65.0111L80.2608 67.1124L83.2274 57.0001H71.618V78.8882H75.6131V69.8484L79.2521 72.081V78.8882H83.2274V69.4763L75.6131 64.8141V61.4215Z" fill="black"/>
<path d="M91.0247 74.4668H88.2756V69.4763L92.4883 66.9154V61.8811L84.2806 66.8716V78.8882H95V71.7308H91.0247V74.4668ZM84.2806 57.0001V66.3901L88.2756 63.8729V61.4215H95V57.0001H84.2806Z" fill="black"/>
<path d="M46.039 44.161C45.9252 44.055 45.7748 43.9974 45.6193 44.0001C45.4639 44.0028 45.3156 44.0658 45.2057 44.1757C45.0957 44.2857 45.0328 44.434 45.03 44.5894C45.0273 44.7449 45.085 44.8953 45.191 45.009L48.167 47.985L45.191 50.961C45.132 51.016 45.0847 51.0822 45.0519 51.1558C45.0191 51.2294 45.0015 51.3089 45.0001 51.3894C44.9987 51.47 45.0135 51.55 45.0437 51.6247C45.0738 51.6994 45.1188 51.7673 45.1757 51.8243C45.2327 51.8812 45.3006 51.9262 45.3753 51.9563C45.45 51.9865 45.53 52.0013 45.6106 51.9999C45.6911 51.9985 45.7706 51.9809 45.8442 51.9481C45.9178 51.9153 45.984 51.868 46.039 51.809L49.015 48.833L51.991 51.809C52.0459 51.868 52.1121 51.9153 52.1857 51.9481C52.2593 51.9809 52.3388 51.9985 52.4193 51.9999C52.4999 52.0013 52.5799 51.9865 52.6546 51.9563C52.7294 51.9262 52.7972 51.8812 52.8542 51.8243C52.9112 51.7673 52.9561 51.6994 52.9863 51.6247C53.0164 51.55 53.0313 51.47 53.0298 51.3894C53.0284 51.3089 53.0108 51.2294 52.978 51.1558C52.9452 51.0822 52.8979 51.016 52.839 50.961L49.863 47.985L52.839 45.009C52.9449 44.8953 53.0026 44.7449 52.9999 44.5894C52.9972 44.434 52.9342 44.2857 52.8243 44.1757C52.7143 44.0658 52.566 44.0028 52.4106 44.0001C52.2551 43.9974 52.1047 44.055 51.991 44.161L49.015 47.137L46.039 44.161Z" fill="black"/>
</svg>
